<?xml version="1.0" encoding="UTF-8"?>
<svg id="Layer_1" xmlns="http://www.w3.org/2000/svg" version="1.1" viewBox="0 0 291.39 143.55">
  <!-- Generator: Adobe Illustrator 29.0.0, SVG Export Plug-In . SVG Version: 2.1.0 Build 186)  -->
  <defs>
    <style>
      .st0 {
        fill: #fc0;
      }

      .st1, .st2 {
        fill: #e84a1d;
      }

      .st3, .st2, .st4 {
        fill-rule: evenodd;
      }

      .st3, .st5 {
        fill: #564596;
      }

      .st4, .st6 {
        fill: #42bbc4;
      }

      .st7 {
        fill: #4563ac;
      }
    </style>
  </defs>
  <g>
    <path class="st0" d="M164.85,108.77s.54-1.15.54-1.2c0-.3-.4-.96-.4-1.39,0-1.31.97-1.23,1.74-1.69.62-.35,1.45-1.37,1.88-1.8.13-.13.05-.59.16-.8.91.11.83,1.85,1.1,2.54v.4c-.13-.05-.4-.13-.46-.13,0,1.95-.62,3.29-1.2,4.82-.48,1.21-.72,3-2.36,3-.67,0-1.26-.77-1.26-1.47,0-.35.08-.48.05-.67-.32-.24-.32-.67-.32-1.07,0-.11.48-.54.54-.54Z"/>
    <path class="st0" d="M148.25,66.34h.59c0,.37.3.46.4.62.24.32.86.11,1.28.27.86.32,2.06.72,3,.72.86,0,1.12-.4,1.95-.4.51,0,.81.35,1.39.35.4,0,.4-.14.75-.22.19.48.53.83.53,1.34,0,.24-.43,1.23-.53,1.55-.56-.08-1.02-1.28-1.47-1.74v.46l2.55,4.5c-.13.56.67,1.74,1.07,2.06v1.42c.27.72.8.72,1.2,1.26.48.64.19,1.34.67,1.82.43.43.72.45,1.2.8.43.32.66,1.43,1.54,1.43,0,.46.25.52-.01.84.35.27.7,1.13,1.15,1.13.43,0,.46-.35.8-.46.4-.14.67.05,1.07,0,1.02-.16,1.98-.56,2.95-.8.08.16.19.24.19.4,0,1.53-1.2,3.51-1.87,4.42-.8,1.07-1.15,2.04-2.14,2.81-1.77,1.39-3.67,1.82-4.34,4.2-.19.67-.88.85-.88,1.61,0,.83.21,1.2.21,2.01,0,.91.99,1.36.99,1.87,0,.16-.16.35-.19.4v.67c0,.43-.08.94-.08,1.69.16.16.22.32.22.53,0,2.09-3.54,1.85-3.83,3.61-.37.05-.8.51-.8.81,0,.59.75.99.75,1.79,0,.43-.05,1.31-.22,1.55-.16.21-.61.11-.8.19-.64.32-1.02.59-1.34,1.26.24.13.4.32.4.56,0,.75-.75,1.34-1.07,1.66-.59.59-.65,1.2-1.07,1.74-.67.86-.96,1.61-2.06,2.14-.46.21-1.13,0-1.21.48-.35.03-.56.19-.8.19-.29,0-.45-.27-.75-.27-1.12,0-1.79.8-2.81.8-.46,0-.7-.24-.86-.54-.16.03-.21.11-.27.13,0-.54-.27-1.12-.48-1.34.21-.21.35-.43.35-.72,0-.43-.75-1.23-.88-1.47-.97-1.64-2.2-3.21-2.2-5.57v-.72c0-.38-.32-.51-.53-.88-.75-1.26-1.55-2.28-1.55-4.02,0-1.87,1.69-2.33,1.69-3.75,0-.67-.27-.94-.35-1.53-.19-1.15-.4-1.55-.67-2.22-.21-.54-.11-1.15-.46-1.61-.7-.88-2.22-1.82-2.22-3.08,0-.29.43-.96.62-1.07-.11-.24,0-.29,0-.4,0-.32,0-1.13.27-1.34-.29-.59-.78-1.12-1.69-1.12h-1.12c-.8,0-.99-1.55-2.09-1.55-1.34,0-2.33.62-3.35.94-.4.13-.54.48-.94.48s-1.07-.4-1.61-.4c-1.04,0-1.5.54-2.54.54-.32,0-.7-.13-.8-.22-.75-.56-2.3-1.47-2.87-2.33-.51-.78-.67-1.42-1.34-1.95-.19-.13-1.61-1.39-1.61-1.5-.13-.16-.21-.21-.35-.37h.08c0-.4-.14-.62-.14-.86,0-.37-.21-.51-.4-.88.59-.3,1.12-1.74,1.12-2.41,0-1.18-.53-1.93-.53-3,0-.54.62-.86.75-1.29.35-1.04,1.15-2.46,1.79-3.35.37-.51,1.07-.45,1.55-.72.4-.24,1.07-.78,1.21-1.2.32-.99-.08-1.42.45-2.09.7-.88,1.61-1.71,2.28-2.54h-.05c.22-.27.27-.51.54-.72.67.48,1.37.67,2.28.67.56,0,.67-.32.99-.48,1.04-.51,3.03-1.26,4.23-1.26.37,0,.72.27.94.27.29,0,.72-.4,1.12-.4.35,0,.51.19.8.19.54,0,.56-.4,1.07-.4s.37.48.8.48c.16,0,.24-.13.4-.16-.03.4-.4.35-.4.7,0,.24.35.35.35.59,0,.4-.35.61-.35,1.02,0,.67.7,1.26,1.21,1.26h.75c1.74,0,2.36,2.14,4.34,2.14.24,0,.54-.27.54-.4v-.54c0-.86.64-.86,1.47-1.12l.08.05Z"/>
  </g>
  <g>
    <path class="st5" d="M85.38,84.68v-.19h-.24c-.16,0-.32.27-.32.54,0,.08.16,0,.24,0,.16,0,.27-.24.32-.35Z"/>
    <path class="st5" d="M93.79,92.58c.16.11.35.24.56.24.05.35.29.05.43.05.11,0,.19.19.19.24,0,.24-.4.86-.72.86-.4,0-1.1-.48-1.1-.72,0-.4.21-.67.54-.67.03,0,.11.03.11,0Z"/>
    <path class="st5" d="M75.31,127.84s.16-.8.32-.8c.24,0,.32.21.32.43,0,.16-.08.21-.11.3v.8h-.24c-.16-.03-.3-.27-.3-.37v-.35Z"/>
    <path class="st5" d="M72.8,89.44v-.16c0-.21-.16-.38-.16-.59,0-.32.13-.43.13-.7,0-.56-.48-.48-.48-.96,0-.38.54-.54.67-.75.22.06.13.06.32,0v-.16c0-.05.11-.13.16-.13,0-.27.27-.35.43-.45.16-.11.19-.46.24-.67.13-.43.37-.51.72-.62.64-.21,1.07-.32,1.74-.54.35-.11.43-.51.77-.51.13,0,.24.29.24.32,0,.21-.16.32-.27.32-.08.4-.24.86-.24,1.1,0,.29.15.81.44.81.11,0,.25-.33.25-.44,0-.32-.32-.51-.32-.83,0-.4.43-.35.67-.51h.64c-.11-.32-.51-.19-.51-.51h.47c.11.44.71.59,1.11.67,0,.26.16.45.32.48h1.45c0,.24.32.29.54.29.4-.05.67-.05.83-.37.03-.08.59-.08.67-.14.27,0,.75.08.75.08-.11.08-.32.11-.4.05v.21c.19.37.75.45,1.15.59.35.1.27.51.38.86h.75c.51.51.75.43,1.07,1.1.05.11.27.16.4.16.19.75,1.31.67,2.04.8h.7c.19.08.61.29.88.29v.05h.16c.43,0,.99.88,1.44.99,0,.32.35,1.18.48,1.47.13.27.48.27.48.54-.43.54-1.2.8-1.2,1.61,0,.27.24.24.38.29.27.14.4.35.45.62h.64c0,.08.05.29.13.29.11,0,.21-.19.29-.32.27-.43.59-.99,1.02-.99.48,0,1.45.51,1.79.72.21.13.45.08.51.3.08.24.05.43.05.67h.19c.24-.11.35-.29.59-.29.56,0,.67.43,1.2.43l1.02-.14c.51.11.96.3,1.26.43.24.4,1.07,1.15,1.5,1.29.38.11.62-.05.99.05.54.16.67.73.67,1.29,0,1.98-1.09,2.51-1.81,3.6-.16.24-.28.31-.44.55-.27.4-.56.45-.83.72-.4.4,0,1.27,0,1.91,0,.48-.18.93-.18,1.28,0,.13-.11.24-.13.32-.11.13-.35.4-.35.61,0,.27-.08.81-.14.91-.4.62-.53.88-.94,1.42-.11.16-.08.48-.13.59-.16.32-.72.7-1.18.7-.51,0-.91-.03-1.31.16-.16.08-.19.21-.27.29-.64.64-1.31.27-1.79,1.02-.22.35-.56.35-.78.56-.35.35-.3.73-.3,1.23v1.26c-.53.27-.8.72-1.07,1.28v-.03c-.19.35-.16.53-.37.88-.48.72-1.02.8-1.47,1.5-.54.8-.74,2.14-1.97,2.14-.43,0-1.03-.29-1.22-.29-.37,0-.72-.32-1.12-.32-.08,0-.21.05-.21.14,0,.24.4.37.48.45.21.21.21.51.32.83.08.3.51.3.51.59,0,.32,0,.5-.13.71-.24.37-.43.54-.7.81-.45.45-1.02.32-1.66.54-.43.13-1.31-.16-1.55.08-.35.35-.08,1.15-.27,1.53v-.05.32c0,.13-.43.32-.62.32-.56,0-.67-.38-1.2-.38-.19,0-.27.19-.27.32,0,.37.32,1.07.56,1.07.14,0,.29-.16.38-.19.11.11.24.13.24.27,0,.16-.21.35-.27.35-.32,0-.43-.24-.7-.24,0,.29.16.35.29.4-.48.48-.48.96-.64,1.63-.05.29-.54.32-.72.35-.43.11-.8.48-.8.94,0,1.04,1.2.67,1.2,1.5,0,.75-.67.83-1.04,1.2-.21.21-.13.56-.29.91-.19.38-.62.21-.86.45-.32.32-.46.7-.46,1.21,0,.27.24.59.4.62.48.27.45,1.5.8,1.85.59.59,1.31.83,2.03,1.18-.11.16-.27.08-.43.08-.4,0-1.07.51-1.31.51h-.3c-.08,0-.19.11-.27.11h-.75c-.62,0-.4-.72-.83-.86-.4-.13-.99-.13-.99-.61h-.51c-.21,0-.27-.22-.29-.35-.75,0-.96-.37-1.31-.72-.08-.08-.24-.21-.24-.27,0-.24.48-.22.51-.46-.08-.03-.14-.08-.21-.13.08-.13.19-.3.19-.46,0-.64-.72-.54-.72-1.1v-.37c0-.59-.4-1.53-.4-1.98,0-.48.62-.67.62-1.1,0-.21-.32-.64-.37-.94v-.27h.03c0-.16.11-.3.24-.3.48,0,.29.48.7.48l.88-3.96v-.4c-.08,0-.16-.03-.24,0-.19.08-.21.3-.4.3-.21,0-.38-.62-.38-.91,0-.51.19-.73.27-1.21.19,0,.27-.08.27-.16,0-.16-.16-.29-.16-.29-.11,0-.13-.75-.13-.94,0-.61.37-1.23.62-1.61.11-.19.16-.56.29-.75.08-.1.22-.08.24-.19.19-.62.19-1.07.35-1.71l-.03-2.01c-.16-.48.13-.86.13-1.28,0-1.02.62-1.69.62-2.6v-.24c0-.19.13-.67.19-.94v-1.18c0-.38.24-1.1.24-1.53,0-.27-.13-1.85-.21-2.14-.24-.64-.67-1.04-1.15-1.29-.4-.19-.7-.13-.99-.43-.32-.32-.48-.43-.86-.54-.75-.24-1.12-.62-1.61-1.1-.22-.21-.11-.51-.11-.83,0-.43-.4-.64-.51-1.02-.21-.64-.75-1.13-.94-1.71-.19-.61-.35-.96-.59-1.47-.08-.16-.27-.11-.35-.19-.19-.19-.24-.56-.32-.75-.08-.16-.3-.11-.4-.22-.29-.29-.67-.83-.67-1.31,0-.32.19-.7.3-.8.24-.4.72-.51.83-.94-.24-.16-.21-.03-.4-.03-.38,0-.43-.54-.43-.91,0-.61.68-.51.56-1.69.72,0,.91-.72,1.13-1.15.3-.59.99-.4,1.15-1.12-.13-.05-.27-.19-.27-.27l.11-.21v.03Z"/>
  </g>
  <g>
    <path class="st7" d="M153.5,55.6c-.1.44-.09.22-.17.38v.7c-.27.27-.75.8-.75,1.18,0,.54.72.91.88,1.15-.11.11-.21.08-.35.11-.24.08-.43-.03-.67.08-.35.16-.43.51-.78.51-.4,0-.64-.54-1.12-.54-.43,0-.54.24-.89.35.05.21.05.37,0,.59-.4,0-.45-.4-.69-.4-.14,0-.29.16-.29.29l.51.59c-.03.16-.11.24-.11.32s.72.75.94.75c0,.08.05.19.11.24-.13.08-.4-.03-.45.16h-.05c-.29-.05-.56-.27-.69-.4v.21c.08.16.16.24.16.46,0,.16-.27.48,0,.62h-.37c-.43,0-.8-.43-.8-.88,0-.19.27-.27.35-.4h-.46c-.11,0-.16-.24-.16-.29-.11-.37-.32-.62-.56-.86-.32-.32-.75-.56-.75-1.13v-.7c0-.38-.59-.94-.97-1.12-.37-.19-.8-.22-.8-.59h-.37c-.59,0-1.26-.91-1.26-1.53h-.8c-.35,0-.19-.56-.35-.72-.29.19-.88.19-.88.48,0,.05.08.16.13.16-.05.16-.11.32-.11.48,0,.4.24.56.56.67.4.13.62.59.7.83.11.37.29.8.51.91.4.19.67.05,1.07.05,0,.08,0,.16-.05.21-.11.32.53.46.69.54.54.27,1.18.48,1.1,1.04-.27-.05-.43-.4-.86-.4-.32,0-.59.16-.59.43,0,.35.48.43.48.78,0,.13-.35.13-.35.13-.24.24-.19.8-.56.8-.19,0-.29-.08-.29-.19.32,0,.45-.4.45-.72,0-.4-.21-.51-.27-.75-.08,0-.72-.64-.75-.8-.11,0-.51-.11-.51-.27-.83-.19-1.02-.43-1.47-.88-.19-.19-.59-.29-.64-.48-.48-.62-.64-1.71-1.66-1.71-.48,0-.51.35-.75.46-.51.24-.86.72-1.45.72s-.96-.3-1.5-.3c-.4,0-.83.27-.83.67l.16.59c-.16.54-.75.72-1.31.86-.48.11-1.26,1.21-1.26,1.79,0,.21.13.29.27.35-.35.54-.51.86-1.07,1.12-.32.16-.37.83-.91.67v.03c-.24-.08-.7.06-.83.06-.64,0-.99.54-1.58.54-.4,0-.43-.99-1.04-.99-.46,0-.75.19-1.15.19-.16,0-.21-.13-.21-.21v-1.07c-.21,0-.43-.16-.43-.38,0-.35.29-.43.29-.61,0-.67.24-1.37.24-2.06,0-.4-.29-.78-.29-1.02,0-.16.91-.72,1.07-.72.11,0,.24.16.4.11h1.2c.11.11.32.13.46.16h1.29c.32-.08.48.11.75.11.19,0,.59-.13.67-.13,0-.54.35-.69.35-1.2,0-.11-.03-.58-.03-.74l-.05.04c.05-.11.11-.29.11-.4,0-.24-.16-.19-.16-.4-.54,0-.7-.48-.7-.91-.16-.03-.19-.16-.32-.19-.43-.13-1.6-.35-1.6-.75-.03,0-.03-.08-.03-.11,0-.24.75-.4,1.02-.48.08.16.51.27.72.27s.51-.11.62-.13v-.19c-.19-.05-.11-.46-.13-.54v-.22h.27c.21.22.48.35.8.35.22,0,.4-.19.46-.4.8,0,1.02-.59,1.18-1.23.16,0,.24-.03.37-.05.16-.05,1.23-.48,1.34-.59.21-.21.13-.54.13-.86,0-.11.24-.27.27-.29.37-.37.75-.8,1.37-.8.35,0,.19.08.37,0,.08.08.16-.13.21-.19.19-.19.43-.03.67-.03.16,0,.59-.24.59-.45,0-.13-.19-.64-.19-.67-.11-.72-.54-.94-.54-1.58,0-1.12,1.04-1.2,1.71-1.69v.32c-.13.27-.16.43-.16.7s.29.29.51.29v.21c0,.13-.24.19-.32.27-.27.27-.59.51-.59.99,0,.27.13.45.29.48,0,.16.03.22,0,.29.3,0,.4.11.64.11.05.13.11.32.19.32.72,0,1.23-.62,1.85-.54-.03.13-.16.21-.16.29,0,.05.46.37.46.37.29,0,.32-.19.46-.24.45-.22.8-.14,1.2-.32.24-.11.67-.51.99-.51.35,0,.72.03.91.11-.06.11-.11.24-.11.29.7,0,1.41-.14,1.92-.14s.84-.04,1.37-.04.83,1,.83,1.59c0,.35-.38.54-.38.88,0,.56.51.91.51,1.42,0,.32-.51.43-.62.59-.32.48-.43.91-.43,1.55,0,.75.54.59,1.15.59.86,0,1.26-.35,1.9-.35.72,0,.56,1.39,1.23,1.39v1.1c0,.08.08.13.13.19l.13.16c.13,0,.45-.14.64-.16.03.13,0,.27.03.4-.27.05-.56.18-.56.45Z"/>
    <path class="st7" d="M140.13,40.77c-.35-.16-.4-.4-.59-.67-.56.8-1.42,1.82-2.54,1.82-.16,0-1.2-.64-1.2-.75,0-.21.35-.35.46-.4v-.4q-.37,0-.7.13c0-.19.29-.51.43-.7-.4-.48-.46-1.15-.46-1.9,0-.4.43-.38.59-.62.32-.45.62-.78,1.21-.94.48-.13.59-.78,1.55-.67-.29-.08-.4-.13-.64-.19,1.18-.29,1.63-1.23,2.44-1.88.32-.24.27-1.07.48-1.07,0,0,.27-.59.27-.61.32-.54.7-.91,1.26-1.12.56-.21,1.31-1.13,1.45-1.69-.67.14-.94.48-1.58.48.13-.19.43-.32.54-.38-.13,0-.4-.08-.4-.08.05-.27.19-.43.4-.43.08,0,.14.08.21.08.08-.16.16-.27.24-.35.14.16.16.3.08.48.43,0,.54.27.88.27.13,0,.43-.64.48-.67-.19-.05-.19-.08-.43-.05.14-.21.35-.43.62-.43.19,0,.35.05.53-.05-.13-.13-.1-.11-.21-.22.27-.27.75-.24,1.15-.32v.32c.35-.08.43-.69.99-.72v.45c.35-.64.8-.48,1.29-.75-.21-.08-.4-.13-.4-.32,0-.13.48-.24.56-.4.16.19.32.4.56.4.4,0,1.42-.67,1.42-.32,0,.37-.46.48-.56.86.54.05.7-.56,1.15-.8.11.19.11.32.13.48.38-.37.59-.48,1.02-.75.03.35-.03.59.27.62.08-.21.19-.4.4-.4.13,0,.72.32.94.43-.24.64-.46.43-1.07.64.27.21.46.24.46.4.24.03.8.11.88.11-.37.27-1.34.75-1.34,1.37,0,.51.94.48.94,1.07,0,.46-.48.67-.48,1.13,0,.51.54.8.54,1.34,0,.32-.27.48-.27.8,0,.59.8.75.8,1.34,0,.16-.24.3-.32.35.24.43.86.53.86,1.12,0,.88-1.85,1.87-2.41,2.62-.27.54-1.5.62-2.01.54-.53.16-1.15.4-1.61.4-.35,0-.59-.05-.59-.35-.56,0-1.15-.37-1.15-.93,0-.27.29-.46.37-.59-.27-.11-.51-.72-.51-1.02,0-.19.05-.35,0-.54,1.13,0,1.72-1.47,2.41-1.87.38-.21,1.02-.35,1.02-.8,0-.67-.88-.8-1.55-.8-.88,0-1.61.32-1.61,1.07,0,.32.08.45,0,.62,0,.61-1.23,1.15-1.79,1.47-.45.27-.94.37-1.2.86-.21.37.05.88-.35,1.07v.54c.13.11.21.29.21.48.48.08,1.2.56,1.2,1.07,0,.4-.8,1.07-1.07,1.07-.54,0-.75.78-.75,1.34,0,.32.24.43.4.45-.08.72-.72.78-.8,1.28h-.72c-.46,0-.62.86-1.29.86-.21,0-.59-1.12-.59-1.26,0-.08.05-.19.05-.27-.46-.45-.4-.83-.59-1.42-.13-.4-.53-.51-.53-.99,0-.19.16-.43.19-.48v.13Z"/>
    <path class="st7" d="M148.57,16.62c-.05-.22-.05-.35.03-.48-.32-.05-.88-.03-1.23-.05.05-.48.35-.35.4-.75-.19-.05-.43-.54-.54-.75.13-.03.24-.05.37-.05-.43-.05-.64-.4-.64-.4-.91,0-1.2,1.18-1.47,1.87-.05.16-.27.11-.4.21-.46.35-.4,1.1-.78,1.47-.64-.43-2.09-.78-2.09-1.69.37-.05.99.03.99.03.27-.21.56-.14.88-.21-.16-.11-1.02-.13-1.2-.13-.32,0-1.02.3-1.02-.35,0-.24.61-.24.75-.27.35-.11,1.07-.43,1.36-.67h-.7c-.05,0-.29-.16-.4-.24h-.22c-.24.13-.24.72-.8.72-.43,0-.72-.16-.86-.43.08-.03.13-.05.21-.05-.45-.24-.86-.46-.75-.88-.08-.03-.13-.11-.21-.11-.19,0-.48-.46-.67-.64.11-.13.67-.64.94-.64.43,0,.72,0,1.34.11-.13.16-.24.24-.32.37.27.22.54.22.72.4-.11-.05-.19-.19-.19-.35,0-.24.21-.45.45-.45.72,0,.54.94,1.2,1.18-.16-.43-.32-.67-.32-1.18,0-.4.19-.4.53-.4s1.07.27,1.07.54c0,.19-.08.35-.08.53.21-.11.27-.35.48-.35.43,0,.37.43.32.64.08,0,.19.03.27.03.45,0,1.87.8,2.14,1.12-.08.03-.19.03-.27.03.21.05.29.03.48,0,.05.13.08.29,0,.4h.86c0,.83.78.62,1.02.96-.72.24-1.02.69-1.69.91Z"/>
    <path class="st7" d="M152.13,12.04c-.64.43-1.98,1.37-2.76,1.37-.48,0-.75-.16-.94-.48h-1.53c-.24-.08-.32-.21-.35-.43.19-.03.48-.03.54-.03.24-.08.53-.08.67-.13-.11,0-1.2-.08-1.26-.08-.46,0-.99.32-.94-.29-.21-.16-.37-.37-.4-.64h.4c.16.11.38.16.54.08v-.13h.45l-.13-.27h.75c.16.16.94.54,1.07.54.32,0,.54-.51.67-.62h.32c0,.35-.05.48,0,.67.24,0,.4-.27.8-.27h.88c.54,0,1.05.4,1.21.72Z"/>
    <path class="st7" d="M139.6,13.72c.35.46.72.56.91,1.15-.54-.13-1.36-.94-.83-1.15v.08l-.08-.08Z"/>
    <path class="st7" d="M124.61,46.31c.16,0,.62-.13.78-.3-.11-.16-.16-.21-.16-.35,0-.19.53-.51.8-.51h.45c.61,0,.91.64.91,1.1,0,.22-.48.19-.48.4v.91c0,.21.19.54-.03.75-.16.16-.43.13-.7.13-.43,0-.75.46-.96.59-.14.08-.35.11-.51.11-.32,0-.67-.29-.67-.61,0-.67.67-.72.78-1.37-.27-.13-.51-.3-.51-.56,0-.35.22-.29.3-.29Z"/>
    <path class="st7" d="M126.45,42.37c-.08,0-.16-.21-.16-.32,0-.16.46-.29.67-.29,0,.29-.21.62-.51.62Z"/>
    <path class="st7" d="M132.13,47.7c.19-.13.13-.11.35-.11.32,0,.56.24.56.51,0,.48-.64.72-.86,1.07.27.08.38.11.54.11v.19c-.24.24-.43.4-.75.4h-1.07c-.27,0-.99.24-1.39.24-.19,0-.3-.16-.48-.16-.27,0-.43.24-.43.46h-.38c-.19,0-.27.11-.38.21h-.19v-.16c.05-.11.86-.96.94-.99.37-.11.91.03.91-.35,0-.05-.05-.13-.05-.19-.11.16-.29.27-.48.27-.35,0-.45-.32-.75-.32-.16,0-.13.13-.27.13-.05,0-.13-.08-.13-.13,0-.4.75-.43.75-.83,0-.35-.21-.48-.21-.78.48,0,1.07-.24,1.2-.51v-.4c-.27.03-.64-.03-.64-.3,0-.21.13-.27.19-.37-.08,0-.16-.03-.24-.03-.27,0-.4.13-.61.13-.24,0-.43,0-.43-.21s.27-.35.27-.56c0-.24-.08-.29,0-.51-.21,0-.38-.08-.46-.13-.13.22-.05.3,0,.4h-.21v-.43c0-.08.03-.14.11-.19v-.24c-.16-.03-.4-.11-.4-.22,0-.13.19-.32.19-.35v-.21c-.4-.08-.62-.16-.62-.51h.43c0,.16.14.24.19.24s.11-.11.11-.16c-.05-.03-.13-.11-.13-.16,0-.22.19-.32.37-.32,0-.22.11-.32.11-.46s.27-.35.43-.35h.77c.11,0,.27.19.27.24,0,.37-.59.32-.67.7,0,.08.03.13.08.21h1.58c.11.75-.72,1.07-.72,1.63-.11.03-.19.11-.22.21.27.08.4-.03.62.03.51.16.43.8.75,1.12.43.43,1.12.62,1.12,1.26,0,.22.29.35.29.56,0,.08-.05.16-.13.19v.19c.19-.05.21-.13.32-.19l-.13.11Z"/>
    <path class="st7" d="M128.22,46.18c-.16.08-.19.19-.19.32h.3c0-.13.03-.24.03-.32h-.13Z"/>
    <path class="st7" d="M141.07,61.92v.19c.08.13.29.11.37.13.43.13.78.59,1.23.7,0,.08.13.11.22.11s.16-.11.16-.19c0-.21-.13-.24-.13-.43,0-.11.13-.3.13-.3l.11-.31c-.4-.08-.56.18-.91.18-.37,0-.62-.35-1.18-.08Z"/>
    <path class="st7" d="M138.34,57.74c.19,0,.29-.24.43-.27,0,.13.03.27.11.3-.08.32-.16.91-.24,1.07-.27-.05-.35-.83-.48-1.04.05,0,.13-.05.19-.05Z"/>
    <path class="st7" d="M138.23,59.94c0-.21-.24-.35-.27-.56.29-.08.32-.35.56-.35.19,0,.27.16.35.16.23.43.17.67.17,1.1,0,.37-.49.75-.7.75-.27,0-.27-.35-.27-.56.03-.22.16-.35.16-.54Z"/>
    <path class="st7" d="M134.22,60.53c0,.08-.13.13-.21.13-.11,0-.32-.21-.35-.24.16-.08.27-.16.43-.19,0,.05.13.21.13.29Z"/>
    <path class="st7" d="M139.81,45.45c-.32,0-.62-.08-.62-.35v-.27h.51c0,.32.19.27.19.54,0,.21-.05.16-.08.29v-.21Z"/>
    <path class="st7" d="M140.22,45.64c.19-.03.37-.22.37-.35-.27-.06-.56-.27-.56-.43,0-.11.32-.8.51-.8.54,0,.56.24.7.7-.45.13-.24,1.07-.83,1.07-.19,0-.35-.13-.37-.16.03-.05.11-.11.13-.14l.05.11Z"/>
    <path class="st7" d="M145.76,42.46c0,.29-.21.43-.4.67-.08-.11,0-.21,0-.35,0-.16.14-.64.62-.67-.05.11-.21.21-.21.35Z"/>
    <path class="st7" d="M148.83,41.38v.32c0,.08-.35.27-.45.27-.24,0-.27-.24-.27-.4.21-.03.37-.19.59-.21-.08-.11-.19-.19-.19-.32s.24-.27.24-.27c.13.16.19.21.29.27-.03.13-.16.32-.22.35Z"/>
    <path class="st7" d="M151.46,64.41c-.35.19-.48.05-.67.05-.22,0-.72-.05-1.02-.21.59-.11,1.23.03,1.68.16Z"/>
  </g>
  <g>
    <path class="st6" d="M245.57,97.08c-.21-.27-.7-.19-.78-.54h.8c.05.02.3-.08.3-.08.4-.14.8-.11,1.04-.21.37-.19.22-.78.59-.78.16,0,.24.24.24.4,0,.56-.56.45-.56.94-.48.11-.72.4-1.29.4-.11,0-.45-.19-.48-.27l.14.13Z"/>
    <path class="st6" d="M248.28,95.76c-.32-.05-.32-.24-.27-.51-.35-.16-.3-.45-.64-.67-.21-.14-.4-.11-.48-.32.51.16.75.48,1.04.78.22.21.51.16.51.53,0,.05-.03.14,0,.19-.05,0-.11.05-.16,0Z"/>
    <path class="st6" d="M250.04,97.05c-.32-.05-.43-.32-.38-.59.16.11.72.69.72.78s-.11.21-.19.21-.16-.11-.16-.19v-.22Z"/>
    <path class="st6" d="M255.26,100.45c0,.05-.03.1,0,.16-.27,0-.45-.4-.43-.56.21.14.43.19.43.4Z"/>
    <path class="st6" d="M254.54,99.99s-.11.05-.13.05c-.32,0-.75-.11-.75-.43.43,0,.7.11.88.37Z"/>
    <path class="st6" d="M254.57,99.43c-.27,0-.75-.64-.78-.85.37.21.64.45.78.85Z"/>
    <path class="st6" d="M252.26,97.93c.24.13.78.29.94.54-.05.03-.13.05-.22.05-.21,0-.83-.21-.83-.51h.05l.05-.08Z"/>
    <path class="st6" d="M250.95,97.26c.29.21.48.13.64.37h-.24l-.4-.27s.13,0,.13-.03l-.13-.08Z"/>
    <path class="st6" d="M243.22,125.51c.35,0,.8-.16,1.18-.27.08.32.3.48.3.8,0,.59-.72,2.01-1.26,2.01-.8,0-1.69-1.98-1.69-2.54,0-.43,1.45,0,1.47,0Z"/>
    <path class="st6" d="M244.63,124.52c0,.27-.05.32-.08.45-.24-.08-.27-.24-.27-.45.13.03.27.03.35,0Z"/>
    <path class="st6" d="M236.52,121.04c-.29.19-.7.24-.94,0,.51-.24.56-.19.94,0Z"/>
    <path class="st6" d="M247.9,111.91c.43.56.69,2.01.69,2.81,0,.59-.16,1.42-.4,1.66v.75c-.14.21-.05.32-.19.54-.48.75-.97,1.02-1.23,1.87-.21.64-.78,1.48-.78,2.41v-.05c-.29,1.23-2.49.67-2.7,1.95-.21-.03-1.31-.64-1.34-.8-.61.05-.4.59-1.07.59-1.04,0-2.76-.69-2.76-1.79,0-.4-.35-.72-.38-1.07,0,0-.03-.11-.03-.13-.19.11-.32.13-.53.19h-.32c.08-.16.19-.32.19-.59,0-.32-.16-.43-.27-.54,0,.08-.05.19-.05.27-.24.11-.27.59-.67.59-.14,0-.27-.14-.27-.27.67-.14.8-1.53.78-1.93-.48.48-1.15,1.88-1.72,1.88-.32,0-.21-.48-.21-.48-.19,0-.78-1.31-.99-1.61-.43-.54-2.01-.8-2.89-.8-.96,0-1.15.43-1.74.61-1.37.46-3.05-.03-3.27,1.34-.56.05-1.02.19-1.61.19-.43-.21-.43,0-.75,0-.94,0-1.34.88-2.54.88-.45,0-1.74-.56-1.74-.94,0-.4.61-.59.61-1.2,0-.78-.4-1.21-.54-1.69-.32-1.18-.4-1.55-.75-2.6-.13-.4-.67-.54-.54-.94.05-.11.08-.21.16-.35.05.13.16.27.24.35.08-.11,0-.21,0-.35,0-.4-.32-.72-.32-1.39v-1.55c0-.22.19-.27.29-.32.03.08.03.19.03.27.51-.05,1.12-.72,1.42-1.02.32-.32,1.29-.38,1.8-.46.96-.16,3.16-.91,3.16-1.82v-.45c0-.27.08-.54.35-.67.14.24.29.35.4.54.3-.19.16-.59.3-.88.21.11.35.21.56.21,0-.75.54-.86.59-1.47.72,0,.86-.54,1.42-.54.48,0,.75.54.8,1.02.13-.19.35-.29.59-.29.13,0,.35.19.4.21.16-.24.08-.43.08-.67,0-.37.4-.56.4-.94s1.07-.62,1.53-.62c.19,0,.4-.16.48-.19-.16-.24-.43-.32-.48-.62.91.38,1.45.75,2.41.75.35,0,.46-.21.75-.21.16,0,.53.27.53.48,0,.35-.4.37-.62.53l-.32,1.34c0,.21.38.16.54.27.16.11.16.51.27.54.72.27,1.13.4,1.79.67.38.13.51.72,1.02.72.83,0,.99-1.58,1.12-2.19v-2.41c.43-.32.29-.67.75-.91.08.72.43,1.2.59,1.72.11.37-.03.85.27,1.07.27.08.78.24.88.29.32.21.32,1.07.46,1.5.24.72.45,1.07.67,1.74.21.64,1.36.88,1.82,1.34.32.32.37.83.48,1.2.11.35.53.35.88.35,0,1.07,1.02,1.52,1.52,2.03l-.03.08Z"/>
    <path class="st6" d="M261.93,126.85s0-.19.03-.27c.11-.21.27-.27.48-.3,0-.05.03-.11.03-.16,0-.4.4-.78.64-.88,0,.18.11.27.19.27,0,.19-.03.37.13.37.19,0,.32-.19.45-.24.03.08.11.11.19.11,0,.21.05.35.16.4-.08.35-.62,1.34-1.05,1.34-.08.4.05.51,0,.83-.13,0-.78.14-.99.14-.08.32-.83,1.87-.83,1.87-.24.24-.72.64-1.02.64-.11,0-.43-.13-.59-.13s-1.21-.4-1.21-.53c-.05,0-.13-.05-.13-.11,0-.69.8-1.07,1.07-1.47.11-.19.24-.35.43-.35.64,0,1.04-.67,1.5-.88.13-.05.51-.64.51-.64Z"/>
    <path class="st6" d="M264.53,122.14c-.08-.21-.29-.29-.29-.51,0-.08.05-.19.08-.27-.62-.11-.99-.99-1.15-1.63.29.45.75.48,1.02.75.16.16.16.35.32.43-.03.08-.11.11-.11.19,0,.13.32.72.46.85h.16c0-.16.11-.27.24-.27h.16c0,.7.35,1.1.99,1.1.51,0,.48-.27.91-.27.08,0,.16.08.22.16-.38.37-.27.94-.53,1.34l-.11-.14s-.05.08-.08.08c-.27.06-.54.13-.54.35,0,.08.11.19.11.27,0,.19-.32.45-.38.54-.27.4-.43.94-.99.94-.24,0-.4-.13-.4-.35,0-.32.32-.45.32-.78,0-.54-.99-.32-.99-.8,0-.27.24-.3.38-.43.27-.27.32-.64.32-1.05,0-.21-.11-.51-.14-.62h.03v.11Z"/>
    <path class="st6" d="M267.07,105.67c.08.13.19.21.32.24v.32c-.16.16-.16.11-.37.11s-.56-.05-.56-.16c0-.35.37-.43.62-.51Z"/>
    <path class="st6" d="M268.36,104.89v.24c-.32.08-.4.35-.67.35-.08,0-.16-.16-.16-.24,0-.32.67-.35.83-.35Z"/>
    <path class="st4" d="M239.62,94.57c.39.15.85.25,1.22.25.32,0,.48.37.8.37,0,.22.22.24.35.27.86.27.83.99,1.47,1.31.27.13.83-.16.83.43,0,.29-.51.19-.51.43,0,.13.46.59.51.64.27.27.21.46.43.78.08.13.4.27.59.27.08,0,.16.19.21.3.05.13.21.03.32.05.16.05.21.21.27.32.05.13.45.08.54.11-.16.11-.35.24-.35.43h-.16c-.05,0-.45-.27-.51-.32h-.7c-.4-.08-1.02-.37-1.02-.67,0-.11-.21-.16-.27-.21-.54-.54-1.02-1.28-1.9-1.28-.67,0-.61.48-.99.67.11.35-.13.46-.13.64h-1.02c-.47,0-.7-.37-1.02-.62l1.03-4.16Z"/>
  </g>
  <g>
    <path class="st5" d="M121.29,33.91c-.21.38-.86.86-1.2.96-.64.21-1.15.67-2.06.67-.99,0-1.69-.24-2.41-.48-.38-.11-.59-.48-1.18-.48.08-.05.16-.13.24-.13,0-.35.08-.51.13-.8-.43-.11-.88.16-1.15-.11.4,0,1.1-.13,1.39-.24-.08-.05-.11-.13-.11-.22-.32,0-1.31-.3-1.36-.59.24-.08.37-.03.53.05v-.21c.21,0,.27-.3.48-.3h.21c.03.16.13.24.16.4-.03.19.21.54.4.54s.35-.14.48-.16c-.05-.19-.08-.24,0-.35.11.11.19.24.35.24l.64-.16c.21.05.27.14.37.19-.03-.08,0-.19,0-.27.4,0,.62.08.86.08.35,0,.67-.32.91-.08,0-.21.05-.29.11-.4.19.05.19.08.29,0,0,.32.22.35.48.35.24,0,.4-.14.64-.14-.08.06-.16.16-.16.24,0,.78.99.59.99,1.34l-.05.05Z"/>
    <path class="st5" d="M75.1,77.05c-.19.32-.7.32-1.02.32-.62,0-1.04-.19-1.55-.19v-.16c.13,0,.24-.11.27-.24-.4-.19-.83-.16-.91-.56-.22,0-.19-.19-.3-.24-.21-.11-.35-.03-.56-.03-.38,0-.56-.4-.94-.4h-.78c-.16-.11-.13-.21-.05-.29-.11-.11-.24-.08-.38-.08-.51,0-1.23.38-1.5.64h-.24c.43-.72.99-1.18,2.2-1.18s1.74.67,2.62.67c.19,0,.4.27.45.32.37.38,1.04.67,1.66.67,0,.06-.03.14,0,.19l.4.03c.29.08.43.46.62.54Z"/>
    <path class="st5" d="M68.62,75.68c.03.14.05.27,0,.4-.03,0-.38.05-.38,0,0-.19.16-.24.24-.24v-.19h.05l.08.02Z"/>
    <path class="st5" d="M73.31,78.52c.16.05.22.13.24.24-.32.05-.56.16-.88.16-.21,0-.43-.18-.43-.4,0-.11.16-.16.27-.16.32,0,.7.16.86.22l-.05-.05Z"/>
    <path class="st5" d="M81.77,78.6c-.08.16-.27.16-.43.16-.32,0-.67-.02-.67-.29,0-.14.21-.16.29-.16s.72.14.8.29Z"/>
    <path class="st5" d="M78.98,77.85c.27.22.54.32.72.59h-.99c-.19.11-.3.21-.48.21-.16,0-.13-.13-.27-.13-.35,0-.32.48-.62.48-.24,0-.19-.27-.32-.35-.24-.16-.88-.08-1.21-.08-.19,0-.19.08-.32,0,0,.08-.03.13-.03.21-.16-.03-.32-.27-.32-.43.05,0,.11-.08.13-.11.62,0,.88.14,1.2-.02-.16-.16-.19-.35-.19-.56-.16,0-.35-.14-.35-.3,0-.08.13-.19.21-.19.24,0,.4.19.64.19.35,0,.51-.11.8-.11.85,0,1.02.46,1.5.7l-.13-.11Z"/>
    <path class="st5" d="M72.1,73.17c.21.03.29.19.29.37,0,.05-.08.13-.13.13-.27,0-.27-.29-.27-.51,0-.03.08,0,.11,0Z"/>
    <path class="st5" d="M71.59,71.85c.06-.11.24-.22.38-.22.19,0,.27.13.32.22-.27.03-.53,0-.7,0Z"/>
    <path class="st5" d="M72.93,72.17c-.08.03-.16-.13-.13-.21l.13.21Z"/>
    <path class="st5" d="M75.5,76.22v.16s.08,0,.11,0c.13,0,.32-.05.43-.16v-.24c-.11.16-.32.29-.54.24Z"/>
    <path class="st5" d="M30.23,44.87c-.43-.08-.27-.22-.59,0,0-.64.13-.64.7-.54-.08.72.64.8.64,1.39,0,.19-.08.27-.22.27-.24,0-.54-.56-.54-.59,0-.19-.08-.4,0-.54Z"/>
    <path class="st5" d="M28.57,43.31c0,.08.22.03.27,0-.05.37.21.75-.05,1.02-.32-.32-.43-.64-.43-1.07-.4-.05-.72-.4-.72-.8,0-.21.21-.27.32-.27.48,0,.24.21.62,0,0,.69-.13.69,0,1.12Z"/>
    <path class="st5" d="M53.6,27.92c-.21,0-.35.08-.35.27,0,.21.29.21.4.21.03.21.16.29.27.37-.24.51-.86.48-1.53.48-1.04,0-1.42-.8-2.2-.8-.48,0-.29.3-.7.48-.69.35-1.36.13-1.93.54h-2.41c-.46,0-.16-.43-.48-.67-.29-.21-1.1-.13-1.47-.13-.59,0-1.07-.62-1.26-.94.64-.48,1.47-.62,2.6-.62.4,0,.56-.03.88-.05-.19-.11-.4-.27-.67-.27h-1.42c-.59,0-2.06.27-2.06-.48,0-.59.78-.38,1.07-.56-.43-.11-.59-.03-.94-.03-.3,0-.8-.4-.8-.53,0-1.31,2.44-2.28,3.4-2.28.38,0,.35.78.46.94.21-.13.4-.48.83-.48.75,0,1.02.32,1.21.8.29-.05.51-.11.8-.19-.03-.24-.08-.32-.13-.48h.59c.38.11.75.46.88.75.16.32-.03.99.45.99.21,0,.21-.11.35-.21-.21-.35-.62-1.61-.62-1.85,0-.22.27-.35.48-.35.48,0,.32.21.75,0-.03-.08-.03-.19-.03-.27,0-.27.38-.45.8-.45.48,0,.94.19.94.59s-.59.64-.59.88c0,.96.72,1.58.72,2.28,0,.86,2.25,1.45,2.76,1.85-.48.32-.59.21-1.07.21Z"/>
    <path class="st5" d="M37.13,25.85c-.13,0-.32-.4-.4-.54-.21-.29-1.29-.21-1.29-.54,0-.91,1.34-1.66,1.34-2.62,0-.21-.37-.64-.4-.94.67-.27.96,0,1.61,0,.32,0,.59-.32,1.07-.19.59.16.86.48,1.44.54.24.24.56-.08.91-.08.56,0,1.87.54,1.87,1.15,0,.29-1.42.51-1.68.59-.83.27-2.01,1.39-2.01,2.01,0,.21-1.85.88-2.06.88-.19,0-.27-.27-.4-.27Z"/>
    <path class="st5" d="M44.9,21.22c-.32,0-.75-.24-.75-.4,0-.4.4-.32.75-.32-.16-.21-.4-.35-.45-.62-.16.03-.3.19-.3.35-.45.05-.8.19-1.12.19-.35,0-.75-.19-.94-.19-.21,0-.4-.19-.4-.4,0-.27.11-.21,0-.4.27-.06.4-.27.67-.27.54,0,.8.24,1.2.27-.46-.06-.86-.22-1.2-.35v-.4c.21-.03.46,0,.46,0,.11,0,.94.16,1.2.19-.51-.11-.96-.05-1.34-.3.11-.16.32-.3.54-.3.35,0,.43.11.67.08-.32.03-.8-.03-.8-.35.48-.08.64,0,.88,0,.11,0,.43.08.46.4h.61c.8,0,1.37,1.02,2.54,1.02.35,0,.48-.11.59-.35-.29,0-.43-.03-.53-.08.03-.05.19-.11.27-.11v-.35c-.19-.03-.67-.16-.67-.4,0-.43.7-.64.96-.86.16.11.32.19.51.19-.03.21,0,.29,0,.35,0,.4.51.99,1.02.99.24,0,.38-.32.72-.32.32,0,.62.35.62.67,0,.37-.64,1.18-.88,1.26-.16.05-1.74-.13-1.74-.05,0,.05-1.71.43-1.79.46-.54.21-1.07.4-1.74.4Z"/>
    <path class="st5" d="M40.8,19.62c-.21,0-.46-.13-.46-.32,0-.43.99-.64,1.26-.62-.05.37-.46.94-.8.94Z"/>
    <path class="st5" d="M44.09,17.69c-.13,0-.35-.11-.35-.35h.94v.35h-.59Z"/>
    <path class="st5" d="M43.02,16.59c0,.19-.16.37-.35.43.03.27.21.32.21.53l-1.15.86c-.46,0-.43-.62-.67-.75-.06.46-.46.88-.91.83-.06.29-.27.59-.56.59-.22,0-.4-.3-.45-.4-.32.16-.48,0-.75,0-.16,0-.24.19-.46.21-.05-.19-.27-.32-.27-.4,0-.05.48-.43.59-.48.43-.21.83-.27,1.29-.53.51-.3.64-.99,1.39-.99.21,0,.24.03.48.06,0,0,1.61-.43,1.61.05Z"/>
    <path class="st5" d="M46.02,15.14c-.32,0-.4-.21-.67-.21-.21,0-.32.19-.54.21,0-.35,1.61-.94,1.95-.94.56,0,1.02.32,1.12.67-.21.11-.4.27-.72.27h-1.15Z"/>
    <path class="st5" d="M47.17,15.87c.05.56-.83.8-1.42.8-.4,0-.86-.48-.86-.72,0-.62,1.63-.67,2.2-.67.3,0,.4.16.48.27-.29.24-.75.32-1.15.32h.75Z"/>
    <path class="st5" d="M44.52,15.81c-.11.16-.19.32-.38.32-.24,0-.54-.27-.54-.4,0-.67.75,0,.91.08Z"/>
    <path class="st5" d="M57.54,23.45c0,.37-.08.13-.08.4.11.03.45.08.62.13-.13,1.46-.21,1.07-1.07,1.39-.24.08-.29.4-.53.4-.37,0-.43-.29-.59-.46-.75-.75-1.58-.64-2.36-1.42v-.45c.35,0,.75.32,1.2.32h.4v-.72c-.35-.05-.86,0-.86-.35,0-.08.16-.13.19-.21.43-.43,1.02-.32,1.61-.32h1.07c.08,0,.27.13.27.27,0,.53-.67.75-.86.99.21-.03.99-.27.99.03Z"/>
    <path class="st5" d="M52.13,18.28c-.1-.13-.27-.27-.27-.54h.32c.78,0,1.18,1.37,2.01,1.13-.21-.13-.43-.32-.54-.45v-.32c.59,0,.8.59,1.47.59v-.59c-.46,0-.83,0-.94-.38.19-.08.3-.03.48-.03.43,0,.7.27,1.21.27.21,0,.32-.22.53-.22.48,0,.54.27.54.67,0,.61-.32.94-.21,1.68-.4.14-.99.14-1.07.14-.16,0-.86.11-.86-.14,0-.11.08-.21.19-.27-.03-.08-.03-.19,0-.27,0-.24.51-.24.67-.4-.08-.05-.21-.08-.32-.08-.48,0-1.42.27-1.95.27-.19,0-.32-.16-.32-.32h-.4l-.08-.27c-.27.08-.46-.11-.67-.27v-.48l.21.27Z"/>
    <path class="st5" d="M58.07,29.66c-.35,0-2.33-.72-2.33-.8,0-.21.48-.11.59-.13.32-.11.21-.86.75-.86.4,0,1.5.99,1.66,1.37-.27.16-.37.43-.67.43Z"/>
    <path class="st5" d="M62.57,22.24c0,.05-.48.4-.48.4-.35.48-.72,1.07-1.53,1.07-.59,0-.59-.35-.75.19h.35c-.08.48-.29.56-.62.88h-.54c0-.35,0-.67.03-.8-.43-.43-.24-.75-.43-1.29v-.46h.61c-.05-.03,0-.19,0-.27,0-.03.16-.4.72-.4.91,0,1.66.32,2.63.32-.03.13,0,.21,0,.35Z"/>
    <path class="st5" d="M51.89,16.62c-.03.19-.19.32-.37.32-.3,0-.94-.72-.94-1.07.7,0,.75.56,1.31.75Z"/>
    <path class="st5" d="M52.13,19.48c.05.13.19.21.19.4,0,.32-.24.35-.4.35-.27,0-.32-.05-.54-.03.11-.45.38-.59.75-.72Z"/>
    <path class="st5" d="M54.19,15.14c-.48,0-.78-.16-1.26-.11-.13-.24-.48-.11-.88-.11-.38,0-.48.03-.72-.21.24-.24.48-.22.8-.32-.05-.08-.05-.24,0-.32-.59,0-.72.16-.94,0,.08-.05.16-.16.19-.27-.37,0-.45-.08-.45-.4.32-.05.53-.21.86-.21.56,0,.7.48,1.02.48.21,0,.32-.21.53-.21.54,0,.51.62.8.62.16,0,.24-.21.4-.21.37,0,.67.48.8.62-.05.08-.16.19-.21.27.21.21.75.43.75.72,0,.27-.27.35-.48.35-.64,0-.59-.67-1.2-.67Z"/>
    <path class="st5" d="M53.36,15.87c-.48,0,.13-.4.24-.4.3,0,.38.13.62.21-.13.19-.46.19-.86.19Z"/>
    <path class="st5" d="M70.79,19.75c-.11.08-.21.19-.27.37.19.05.35.03.35.03-.08.94-1.28.94-2.22.94-.35,0-.48-.22-.53-.4-.37.05-.43.19-.67.35h-2.14c-.56.13-1.39.05-1.34-.4h-.32c-.11.14-.51.46-.75.46-.59,0-1.93-.67-1.93-1.21,0-.19.21-.37.32-.43-.48-.48-.62-.91-1.07-1.37-.16.16-.32.27-.54.27-.29,0-1.93-.7-1.93-.94,0-.4.48-.4.8-.4,1.2,0,1.42.94,2.33.94.27,0,.43-.05.54-.22h.48c-.21.62,1.02.46,1.26.8h-1.07c.16.72.83.32,1.2.62-.05.05-.19.05-.19.13,0,.37.32.21.43.14.64.16,1.18.32,1.85.32,1.47,0,1.95-.67,3.35-.67,1.07,0,1.77.05,2.14.75-.05.03-.19.05-.27.05l.19-.13Z"/>
    <path class="st5" d="M58.29,19.83c.29,0,.19-.61.8-.61.48,0,1.12.54,1.12.88,0,.46-.16.86-.54.86-.19,0-1.74-.72-1.74-.72,0-.27.29-.4.35-.4Z"/>
    <path class="st5" d="M59.94,15.87c.3,0,.08.05.35,0v.35c0,.13-.16.27-.4.27-.13,0-1.69-.29-1.69-.29.27-.27,1.23-.32,1.74-.32Z"/>
    <path class="st5" d="M57.21,15.55c0-.13.19-.24.27-.27-.32-.32-.88-.48-.88-1.02,0-.27.35-.37.62-.4.08.21.64.4.94.4,0,.64.94.05.94.62,0,.19-.08.38,0,.67-.94.21-1.87.32-1.87,0Z"/>
    <path class="st5" d="M56.6,12.07v.54h-.46c-.16-.16-.48-.21-.48-.54.35-.03.75,0,.94,0Z"/>
    <path class="st5" d="M63.91,11.93h.32v-.35l-.13-.19h.27c.37,0,.35.14.35.46,0,.19.32.21.32.4s-.19.24-.19.4c0,.24.4,0,.46,0,.27,0,.96.32,1.31.35,0,.19.06.29-.03.4-.11.16-.4.11-.62.13-.53.05-.91.86-1.26.86s-.35-.24-.43-.54c-.13.13-.19.27-.32.4.16.27.27.32.35.54h-.48v.35c-.24.03-.72-.32-.97-.48,0,.48-.24.62-.64.62-.43,0-1.02-.11-1.07-.48.19-.03.27-.1.35-.19-.46,0-1.21-.27-1.21-.67,0-.51,1.66-.46,2.04-.53-.4-.11-.7-.21-1.1-.21s-.48.21-.8.21c-.27,0-.29-.19-.37-.35-.27.11-.35.21-.56.21-.19,0-.21-.11-.21-.27.27-.11.46-.13.62-.35-.91,0-1.47-.08-1.55-.85h.4c.13.11.56.27.8.27.11,0,.24-.21.24-.21-.35-.11-1.18-.29-1.18-.59s.37-.27.61-.27c.38,0,.51.19.72.19.16,0,.22-.19.3-.27-.27-.16-.59,0-.75,0-.11,0-.35-.4-.35-.43.32-.19.53-.35,1.02-.24h.45c-.32-.16-.78-.19-.8-.56.67.05,1.21.11,1.69.29.54.22.43.99.86,1.15.4.16.67-.11,1.07.05.4.16.24.51.48.75Z"/>
    <path class="st5" d="M65.43,35.36c.13-.11.27-.19.27-.35v-.4c0-.46.13-1.53.88-1.61.13.4.27.48.4.75.08-.11.16-.16.24-.22.56.7,1.42.43,1.9,1.07.13.19.05.37.19.48.43.32.91.19,1.15.51-.3.19-.54.29-.88.29h-.72s-.86-.62-1.02-.67c0,.59-.88,1.15-1.26.99-.08.13-.08.21-.21.21-.32,0-.24-.27-.19-.54-.43-.11-.94-.03-1.15,0,.03-.46.35-.4.4-.53Z"/>
    <path class="st5" d="M74.4,30.67c0,.35-.67.59-.99.59-.4,0-.67-.27-.67-.59,0-1.07,1.66-.88,1.66,0Z"/>
    <path class="st5" d="M68.38,36.62c.54-.03.43-.03.75.11-.24.32-.91.86-1.34.91v-.35c.21-.27.56-.51.59-.67Z"/>
    <path class="st5" d="M71.27,23.71c-.54,0-.99-.13-.8-.59-.24-.13-.54-.27-.54-.56,0-.27.24-.4.45-.4.59,0,.78.21,1.34.21.72,0,1.34.59,1.82.83-.08.24-.24.43-.48.43-.35,0-.51-.19-.8-.19s-.53.27-.99.27Z"/>
    <path class="st5" d="M71.14,37.58c-.16.22-.21.59-.48.59-.05,0-.4-.4-.4-.4,0-.48.62-.51.88-.19Z"/>
    <path class="st5" d="M75.02,30.54c-.19,0-.35-.05-.35-.21,0-.08.29-.27.35-.27.24,0,.45.32.53.43-.35.08-.27.05-.53.05Z"/>
    <path class="st5" d="M71.19,29.12c-.32,0,.29-.62.62-.62-.08.32-.29.62-.62.62Z"/>
    <path class="st5" d="M83.45,33.27c0,.3-.05.75-.35.75-1.34,0-1.39-1.82-2.68-1.82-.16,0-.51.29-.53.29.24.13.29.11.53.05v.32c-.16.05-.29.08-.4,0v.4h.35c.05.35.37.94.59,1.02.51.19.7-.14.75.32h.45q-.03.43,0,.54c0,.19.48.32.48.62,0,.27-.29.78-.4,1.07-.48-.05-2.2-.7-2.49-1.07h-.4c.46.56,1.96,1.13,1.96,1.87,0,.19-.16.32-.27.32-.13,0-.19-.29-.27-.32-.77-.37-1.28-.21-1.95-.62-.64-.37-2.25-.35-1.79-1.2-.88-.37-1.31-.88-2.09-1.34-.13.19-.3.4-.54.4-.27,0-.21-.19-.45-.19-.32,0-.48.4-.8.4-.3,0-1.15-.38-1.15-.75,0-.27.7-.72,1.07-.72h1.15c.24,0,.88-.16,1.2-.37-.13-.08-.48-.35-.48-.56,0-.46.48-.21.67-.4.24-.24.8-.83.8-1.2,0-.7-1.71-2.01-2.28-2.01-.35,0-.51.32-.86.32-.11,0-.22-.27-.22-.32,0-.27.48-.32.64-.35-.24-.24-1.69-1.47-1.98-1.47-.35,0-.78,1.02-1.26,1.02-.35,0-.24-.43-.22-.62-.83-.08-2.86,0-4.07,0-.22,0-.64-.32-.8-.54h-1.28c-.13-.38-.54-.43-.59-.8.35-.14.75.03,1.2.08v-.35c-.24-.16-1.47-.27-1.47-.27,0,0-.4-.48-.4-.72,0-.75.13-.91.54-1.2.21-.16.08-.64.19-.75.54-.53,1.23-.99,2.14-.99,0,0,.86.27.88.27-.27.56-1.15.62-1.15,1.39,0,.16.08.27.21.27-.05.19,0,.48,0,.48,0,.21-.05.45.27.45.16,0,.53-.32.53-.54,0-.27-.27-.45-.27-.72,0-1.02,1.79-1.34,2.87-1.34.7,0,1.07.94,1.07,1.53,0,.11-.13.53,0,.53.16,0,.27-.27.53-.27.3,0,.38.27.62.27.46,0,.59-.67,1.07-.67.51,0,1.66.16,2.01.4.59.43.78,1.34,1.66,1.34h.67c.29,0,.96.08.88.54.72.24,1.12.67,1.87.75v.45h.46c.37,0,.59.27.75.64-.38.08-.72.05-.94.37.46.05.56.05.8.05.13,0,.32.08.4.24-.43.22-.64.22-.88.62.24.13.4.21.75.21.05.62.78.88,1.34.94.05.48.19.94.59.94.59,0,.72-.37.94.13.13.13.35.13.48.13.51,0,.72.19.72.62,0,.35-.46.45-.8.45.03.3,0,.21,0,.35,0,.08-.08.32-.59.32Z"/>
    <path class="st5" d="M72.48,36.14c-.27.21-.35.21-.62,0,.27-.35.29-.16.62,0Z"/>
    <path class="st5" d="M67.39,32.87c.35-.16.35.19.53.43-.35-.03-.56-.24-.53-.43Z"/>
    <path class="st5" d="M80.64,6.82c-.19.19-.27.24-.48.29l2.14-.62c.19.1.29.16.48.21.29.08.29.29.45.45.32.32,1.74.19,1.74.67,0,.35-.48.27-.67.4-1.07.8-2.38.32-3.8,1.02.27.27,1.34.05,2.01.08-.62.62-2.12.99-3.08,1.31-1.07.35-1.69,1.42-2.49,2.01-.37.27-.96-.05-1.39.08-.59.19-1.26.24-1.69.59h.75c.05.59-.27.54-.78.48.32.16.62.27.78.64-.56.27-.75.91-1.21,1.23h-1.34c.05.19.19.24.19.4,0,.86-1.12.35-1.12,1.26h.67c.08,0,.4-.03.4.21,0,.45-1.53.94-2.14.94s-.35-.4-.88-.4h-2.01c-.24,0-.4.27-.8.27-.88,0-1.6-.24-2.54-.54-.08.13-.19.27-.32.27-.19,0-.27-.13-.27-.21,0-1.07,1.39-.67,1.96-1.07-.32-.24-.88-.32-.88-.8,0-.37.4-.27.67-.27.86,0,1.15.46,1.66.75h.48c-.37-.37-1.2-.7-1.2-1.34h-.4q-.16.08-.27.19h-.4v-.32c.21-.46.4-.75.8-.88.67-.21,1.47.03,1.47-.72,0-.86-1.82-.86-1.82-1.34,0-.27.4-.21.67-.21-.29,0-.35-.11-.4-.32.13-.05.27,0,.4,0,.3,0,.89-.11,1.42.05.67.21.91.99,1.66.91-.13-.13-.99-.67-.99-.83,0-.11.13-.19.19-.27h1.34c.51-.21.96-.35,1.28-.75h-.4c-.54.43-1.15.62-2.01.62-.51,0-.67-.21-.94-.21-.21,0-.32.27-.53.27-.54,0-1.23-.19-1.07-.54h-.35c-.19.13-.35.27-.59.27-.54,0-1.28-.32-1.47-.56.19-.13.38-.27.72-.29-.51,0-1.04-.03-1.26,0,.29-.7.96-.62,1.66-.83-.24-.05-.32-.05-.54-.05-.54,0-.56.48-1.07.48-.13,0-.43-.19-.48-.21.27-.27.43-.35.75-.46h-.8c-.16.05-.32.13-.4.19h-.59c.16-.67,1.9-.99,2.68-.99h.59c.11,0,.21-.11.21-.22.86,0,.51-.59,1.07-.59.51,0,1.55.51,1.79.59.24-.64.56-1.21,1.34-1.21.46,0,.19.24.54-.05.13-.27.35-.35.61-.35h3.08c.05-.11.19-.19.32-.19.48,0,.62.32,1.02.32.37,0,.48-.45.86-.45.4,0,.56.19.8.19h.75c.64,0,2.95-.08,3.48.46Z"/>
    <path class="st5" d="M91.67,29.47c.37-.19.37-.21.75-.05.16-.8.56-1.07.8-1.82-.83-.27-2.78-.4-2.89-1.15.27-.1.24,0,.48,0,.56,0,.96.4,1.61.4.27,0,.24-.24.27-.4-.83-.27-1.07-1.52-1.95-1.52-.24,0-.32.45-.67.45-.48,0-.72-.05-.72-.45,0-.59.59-.54.59-1.15,0-.4-.43-.43-.67-.46v-.4c-.75-2.3-2.62-4.63-5.62-4.63h-.8c-.35,0-.51.35-.86.35-.24,0-.48-.21-.8-.21-.29,0-.4.05-.54.1.08.08.19.19.27.22-.16.16-.13.08-.35.08-.56,0-1.42-.24-1.74-.64.24-.16.43-.19.53-.43-.43-.16-.75-.45-1.07-.45-.59,0-.43.19-.94,0,.05-.37.59-.53.8-.53h.67c.27,0,.35-.03.48-.21h1.53c.27-.19.27-.3.35-.59h-1.07c-.05.13-.13.27-.27.27h-.94c-.11,0-2.68-.72-2.68-1.15,0-.83.94-.53,1.53-.72.48-.16.78-.45,1.29-.62.72-.24,1.69.16,2.28-.19.43-.27.72-.75.72-1.42-.48-.05-2.01-.03-2.01-.53,0-.24.4-.38.54-.4.91-.3,2.12-.94,2.65-1.47.21.16.43.21.7.21.94,0,.21-1.23,1.07-1.34,1.07-.13,1.47-.4,2.49-.4.75-.19,1.29-.61,2.01-.61.48,0,.62.8,1.12.8,0-.19-.13-.35-.13-.54l.27-.27c.29.51.75.45,1.29.67h.4c-.08-.21-.21-.37-.21-.59,0-.32.4-.35.67-.35,1.1,0,1.74.62,2.41.94h1.2c-.43-.21-1.53-.56-1.53-1.07,0-.4.83-.27,1.07-.32-.19-.19-.4-.21-.54-.4.72-.35,1.39-.54,2.28-.54.64,0,1.07-.03,1.66.19h.54v-.32c.4-.05.67,0,1.07,0,1.29,0,2.33-.75,3.7-.75h3.88c1.58,0,2.76,1.02,4.01,1.56.72.29,1.66.11,2.33.27-.14.94-1.95.8-2.68,1.07l-5.88.32c.46.35,4.94-.19,5.43,0-.05.21-1.22,1.34-1.01,1.34.67,0,2.26-1.52,3.15-1.52.48,0,.67.4.67.8,0,.24-1.73,2.06-1.81,2.33.69-.19,2.05-1.95,2.48-2.28h1.79s.51.11.62.08c.48-.19.56-.32.99-.54h1.28c.08-.32.27-.35.54-.35.35,0,1.61.59,1.61.94,0,.32-.51.56-.67.62-.88.29-1.45,1.07-2.65,1.07.32.16.35.16.56,0,0,.75-.72.75-1.2.86.19.37,0,.08,0,.35,0,.43-.7.54-1.2.67.03.29,0,.29,0,.4,0,.56-.56.75-1.07,1.12-.32.24-.29.88-.45,1.15.29.13.51,0,.8,0,.43,0,.8.29,1.07.51-.14.08-.32.16-.48.16.11.43,1.15.29,1.15.94s-1.39.4-1.87.4c-.29,0-.53.21-.53.4,0,.46.48.46.86.46,0,.59.4.75.4,1.15,0,.21-.13.43,0,.59-.43,0-.86,0-.86.35,0,.45.75.43,1.07.54-.16.43-.7.67-1.21.72,0,.19.13.35.27.4-.19.8-1.26.45-1.47,1.02-.3-.19-.59-.32-.8-.62h-.4c.27.72,1.47.48,1.47,1.21,0,.32-.08.75-.4.75-.48,0-1.31-.7-1.47-1.21-.21.03-.29,0-.35,0v.4c.96.96,2.68,1.42,2.68,2.94,0,.29-.43.32-.72.32-1.26,0-.99-1.34-2.09-1.34-.13,0-.27.08-.4,0,0,.38.27.46.27.67,0,.24-.46.32-.59.35,0,.8,2.38.7,2.95.88-.4.32-.67.35-1.15.51-.88.3-1.15,1.05-1.93,1.29-.96.32-1.74.24-2.76.67h-1.26c-.27.16-.54.24-.54.45l-.67.48c-.51.4-.54.94-.94,1.34-.54.54-1.45.4-2.01.8h-.4v-.54c-.4.16-.3.43-.54.67-.56.56-2.01.32-2.01,1.2,0,.08.05.19.05.27-.08.11-.19.19-.19.32,0,.19.32.32.32.62,0,.91-1.26.61-1.26,1.39,0,.48-.05,1.18,0,1.47-.62.3-.29,1.69-1.02,1.69-.19,0-.27-.11-.32-.27-.32.03-.37.19-.53.19-.67,0-.62-1.21-1.29-1.21-.37,0-.8.32-1.12.35-.19-.62-.46-.43-.88-.75-.16-.11-.11-.48-.19-.54-.54-.43-1.55-1.63-1.55-2.41,0-.35.21-.32.4-.51-.4-.51-.54.16-.99-.08-.11-.11-.19-.62-.27-.88-.16-.51-.88-.8-.88-1.53,0-.27.19-.4.27-.67-.19-.11-.37-.14-.54,0v-.62c.37-.51.54-1.04,1.07-1.47v-.05Z"/>
    <path class="st5" d="M90.41,28.45c-.24-.03-.54-.62-.54-.94,0-.4.35-.54.59-.54.69,0,.91.72,1.61.94-.05.46-.62.54-1.07.54h-.59Z"/>
    <path class="st5" d="M117.59,20.23c-.19,0-.35-.27-.35-.4,0-.16.19-.27.27-.35h.48v.35h.45c-.13.08-.59.4-.86.4Z"/>
    <path class="st5" d="M86.85,53.19c-.13,0-.27-.19-.27-.27,0-.11.48-.48.48-.51v-.16c-.08,0-.19-.05-.21-.13.75-.37,1.04-1.58,1.45-2.19.21-.35.37-.8.8-.8.11,0,.19.16.19.27,0,.59-.56.88-.72,1.37v.24c.22-.05.22-.22.4-.22.16,0,.32.03.43.14l-.14.13v.24h.48v.13l.32-.11c.3.08.64.08.78,0,0,.24-.03.48-.03.88.05-.05.19-.08.29-.08-.03.24-.27.29-.27.4,0,.13.19.24.19.43.27,0,.19-.05.35-.16,0,.32.19.3.19.56,0,.32-.16.64-.43.64-.19,0-.24-.22-.24-.32-.08,0-.13-.05-.21-.05-.21,0-.05-.51-.27-.72-.21.32-.45.72-.78.72-.05,0-.16.05-.16,0,0-.27.21-.27.29-.43-.27,0-.62.16-.75-.1-.19.08-.35.13-.53.13-.35,0-.51-.19-.8-.19-.4,0-.51.16-.83.16Z"/>
    <path class="st5" d="M69.21,47.6c.46,0,.91.08.91.46,0,.03-.11,0-.13,0-.24,0-.62-.11-.78-.27.03-.05.03-.13,0-.19Z"/>
    <path class="st5" d="M33.84,50.27c.11-.05.24-.13.37-.13.29,0,.53.32.72.37,1.15.37,1.8,1.02,2.49,1.71v.24h-.24c-.62,0-1.55-.72-1.98-.99.05-.19.19-.19.27-.27-.54,0-1.29-.27-1.39-.59.13-.05.24-.16.27-.24-.13-.03-.4-.11-.4-.11h-.11Z"/>
    <path class="st5" d="M30.57,47.46c-.11,0-.21-.32-.32-.48v-.22c.24,0,.38.16.62.19,0,.03-.32.32-.16.32.19,0,.29-.21.35-.35.05.16,0,.32,0,.59,0,.13.13.19.13.32,0,.11-.13.16-.13.27s.48.51.21.51c-.21,0-.37-.29-.37-.51,0-.16.11-.24.11-.29-.21-.05-.27-.35-.43-.35Z"/>
    <path class="st5" d="M15.18,42.72h.32v.32c-.48.24-.64.43-1.04.75-.24-.19-.37-.22-.56-.35v-.32c.46-.13.8-.4,1.28-.4Z"/>
    <path class="st5" d="M84.2,51.72c.22,0,.3-.03.38-.16-.56-.32-1.07-.83-1.9-.64.32.24,1.1.8,1.52.8Z"/>
    <path class="st5" d="M82.92,53.81c.13.27.32.37.59.43h.8v.16c0,.16-.27.29-.32.29-.19,0-1.18-.51-1.18-.7,0-.08.05-.16.11-.19Z"/>
    <path class="st5" d="M86,54.5v.19c0,.19-.3.35-.59.35-.27,0-.43-.13-.43-.29s.37-.83.62-.91c.05.11.19.16.19.27,0,.24-.4.4.21.4Z"/>
    <path class="st5" d="M4.74,40.1c.11-.24.19-.19.4-.19.32,0,.35.19.4.46h-.88c-.11-.08-.27-.16-.32-.27h.4Z"/>
    <path class="st5" d="M13.84,78.04v.19c-.21.05-.3.13-.48.13-.08,0-.16-.11-.16-.19,0-.16.03-.24,0-.38.29,0,.48.08.64.24Z"/>
    <path class="st5" d="M13.04,77.1s-.08.05-.11.05c-.13,0-.16-.19-.24-.27.13,0,.27.11.35.21Z"/>
    <path class="st5" d="M12.5,76.62c-.08.1-.22.21-.35.21-.08,0-.13-.13-.13-.21h.48Z"/>
    <path class="st5" d="M11.51,76.35c.08-.03.16-.06.24-.06v.16c0,.05-.08.11-.13.11-.11,0-.24-.19-.24-.19.05-.03.13-.03.19-.03h-.05Z"/>
    <path class="st5" d="M10.65,75.82c0,.08,0,.13.03.21h-.19c-.08,0-.21-.11-.21-.19.05-.03.14-.08.16-.13.05.05.13.11.22.11Z"/>
    <path class="st3" d="M87.74,45.72c.03.13.26.17.23.3-.16.51-1.65.71-2.18,1.01.03.05.19.11.27.11.64,0,1.93-.45,2.54-.8v.32c.31.14,0,.4.22.4.24.4.45.67.45,1.29,0,.86-2.16.97-2.54,1.47-.79,1.03-1.53.59-2.87.59-1.02,0-1.61-.19-2.62.13-.56.19-.29.43-.67.8-.59.59-1.15.35-1.5,1.07.8-.11,1.34-.94,2.52-.94.56,0,1.39-.11,1.39.4,0,.53-.96.67-1.13.88.24,0,.54.08.67.08-.05.27-.27.48-.27.64,0,.67,1.23,1.42,2.01,1.42.16,0,.86.03.86.32,0,.22-1.83.92-1.97.94-.54.16-1.03.88-1.25.88-.16,0-.53-.43-.53-.67,0-.59.96-1.02,1.58-1.07-.43,0-.4-.03-.4-.4-.4.03-.4.37-.64.54-.24.16-.91.05-1.07.05-.08,0-.21.03-.27,0v.08l.02.09c.03.06.07.12.12.18-.19.29-.48.46-.86.46-.32,0-.35-.13-.62,0-.43.43-1.34.72-1.34,1.74,0,.08.03.21.11.24,0,.13.11.48.27.48.05,0,.29-.19.29-.19v.19c-.32.08-.78.19-.88.08-.54.4-1.45.24-1.98.59h.27c.24,0,.48-.13.67,0-.38.13-.64.13-1.02.13-.08,0-.16-.03-.24-.03-.08.03-.16.11-.16.19,0,.13.24.32.24.32-.05.21-.56,1.15-.75,1.15-.08,0-.14-.16-.19-.21l-.13.13c.06.21.24.3.24.51,0,.16-.54,1.1-.62,1.1-.05,0-.11-.11-.11-.16v-.29c0-.19-.24-.62-.3-.89-.05.14-.03.35-.03.35,0,.19.14.67.14.94s-.16.24,0,.4h.19v.27c0,.21-.22.33-.35.33.11.19.23.21.37.23-.05.3-.18.27-.42.27v.21l.31.19c-.08.11-.17.27-.31.3-.31.06-.45.27-.67.32-.32.11-.3.19-.45.35l.07.05c-1.25.71-2.86,1.22-2.86,3.16,0,.86.72,1.14.75,1.95,0,.02,0,.04,0,.06v.13c.08.32.32.59.32,1.07,0,.56-.13,1.07-.59,1.07-.4,0-.38-.43-.54-.67-.32-.43-.59-.56-.8-.99-.43-.86-.11-2.49-1.28-2.49-.24,0-.35.35-.59.35-.48,0-.78-.62-1.42-.62-.37,0-.45.21-.67.21-.08,0-.19-.13-.19-.21-.43.11-.99.05-1.44.21.27.08.21.08.37,0-.03.4-.27.64.05.86-.75.37-1.39-.54-1.93-.54-.16,0-.24.21-.4.21-.3,0-.46-.27-.75-.27-.78,0-1.15.67-1.47.99-.22.21-.46.03-.72.13-.59.21-.94.94-.94,1.74v.04c.04.07.13.16.13.22-.02,0-.05,0-.07,0l.02.06c.05.16.11.27.11.43,0,.48-.19.67-.27,1.07v1.5c-.05.22.16.43.22.54.11.24-.03.4.08.64.11.22.46.59.64.78.48.48.48.94,1.18,1.15.24.08.24.32.46.32.51,0,.94-.38,1.47-.38.29,0,.4.16.51.16.22,0,.35-.32.38-.43.11-.32.56-.67.56-1.07,0-.78.88-1.04,1.61-1.04.24,0,.43.03.54.08.11.03.46.05.61.05v.24c0,.37-.46.86-.46,1.37,0,.43-.16.61-.32.88v-.19h-.21v1.28c0,.27-.32.38-.48.54v.14c0,.19.16.29.32.29.88,0,1.6-.16,2.54-.16.64,0,.8.46,1.29.56v.4c0,.24-.03.91-.19,1.18v1.63c0,.59.56.83.99,1.04.29.13.29.64.75.64.7,0,1.04-.54,1.69-.54.75,0,1.08.54,1.51.86-.03.07-.6.67-.67.64-.05-.05-.3-.13-.3-.21,0-.11.11-.16.16-.27-.29-.14-.37-.48-.67-.48-.19,0-.94.54-.94.7,0,.11.16.21.22.24-.05.27-.19.4-.4.4-.43,0-.69-.51-.91-.72-.19-.19-.62-.03-.8-.03-.05,0-.13-.11-.13-.16-.37-.08-.37-.35-.48-.56-.08-.16-.99-.72-1.02-.72-.05.08-.05.19,0,.24h-.27c-.4-.27-.13-.64-.27-1.05-.08-.27-.21-.32-.35-.45-.43-.43-.88-.67-1.04-1.31h-.16c-.19,0-.32.13-.51.13-.51,0-.78-.3-1.13-.45-.51-.24-.88-.11-1.42-.38-.83-.4-.94-1.02-1.66-1.37h-.16c-.21-.13-.37-.22-.59-.22-.48,0-.56.54-1.02.54-.21,0-.43-.19-.54-.24-.21-.11-.4-.05-.62-.05-.32,0-1.23-.64-1.5-.78-.3-.13-.48.03-.78-.05-.38-.11-.45-.43-.83-.62-.35-.16-.54-.11-.88-.27-.16-.08-.21-.11-.3-.19-.32-.32-1.15-.51-1.23-.86-.24,0-.4-.3-.4-.54,0-.29.27-.46.27-.75,0-.35-.21-.43-.27-.62-.32-.96-1.23-1.74-1.82-2.33-.27-.27-.7-.38-.96-.64-.21-.21-.03-.48-.16-.78-.24-.48-1.07-.54-1.07-1.18-.24-.05-.21-.08-.29,0-.35-.35-.62-.64-.91-.94-.24-.24-.16-.7-.4-.94-.24-.24-.19-.83-.4-.94-.45-.21-.88-.19-1.23-.54-.08.11-.05.27-.05.35,0,.56.26.91.48,1.36.19.4.54.4.81.67.38.37.43.64.56,1.1.19.62.72.91.91,1.47.21.64.38,1.34.86,1.66.22-.21.54.24.54.45,0,.14-.11.4-.19.4-.05,0-.41-.46-.44-.57-.48,0-.74-.63-1.03-.82-.16-.11-.19-.11-.27-.24v-.7c-.29-.29-.51-.59-.77-.86-.38-.38-.96-.29-1.23-.7.13,0,.77.1.53-.24-.4-.57-.84-1.14-1.31-1.44-.32-.2-.3-.95-.46-1.27-.24-.48-.48-.64-.67-1.26v-.19h.05c-.4-.8-1.77-1.37-2.73-1.74-.21-.08-.14-.38-.21-.59-.37-.94-1.13-1.26-.99-2.36-.56-.08-1.15-1.27-1.61-2.06-.13-.23.11-.4.27-.51-.29-.59-.01-1.58-.27-2.25-.25-.65.45-2.17.45-3,0-.59-.67-.83-.67-1.42,0-.16.29-.19.4-.19.4,0,.64.21.78.46.13-.16.37-.48.37-.72,0-.27-.24-.35-.35-.61-.11-.05-.24-.11-.29-.16-.27-.27-.94-.32-1.02-.59-.21-.7-1.15-.35-1.28-.88-.91,0-.96-.72-1.15-1.34-.03-.08-.72-.51-.72-.51-.32-.21-.03-.56-.27-.8-.16-.16-.38-.16-.59-.21-.38-.11-.27-.83-.27-1.18,0-.16-.16-.24-.16-.37-.13,0-.13.03-.27.03-.46,0-1.12-.51-1.12-.8v-.4c0-.4-.32-.4-.8-.4-.37,0-.48-.24-.48-.4,0-.21.4-.24.4-.45v-.35c-.51.03-.37.35-.72.35-.11,0-.4-.24-.4-.4,0-.32.19-.43.27-.56-.13-.13-.37-.37-.48-.19-.4,0-.59-.19-.8-.4-.08.21-.19.48-.4.48-.56,0-.94-.78-1.26-1.02-.7-.51-1.61-.48-2.41-.94h-1.47c-.89-.3-2.06-.4-2.52-1.34-.32.13-.86.27-1.1.4.08.19.13.27.27.37-.35.53-2.06,1.5-2.68,1.5-.11,0-.27-.08-.27-.19,0-.16.16-.19.22-.22-.13-.19-.03-.19-.03-.32,0-.59.4-1.05,1.18-1.29,0-.08.03-.19.03-.27h-.32c-.64,0-2.41,1.47-2.41,2.36v.4c0,.62-.59.83-1.2,1.07-.35.13-.46.4-.67.67-.4.51-1.31.78-1.74,1.21-.4.4-1.37.7-2.14.8-.96.16-1.5,1.28-2.62.96.32-.51.83-.3,1.28-.56.32-.19.56-.72.86-.88.45-.27.96,0,1.28-.4.45-.59,1.5-1.04,2.14-1.47.62-.4.62-1.2,1.26-1.61h-.4c-.4.16-.59.35-.99.35-.32,0-.46-.13-.72-.21-.08.21-.16.29-.19.48-.64-.24-.83-.4-1.29-.75-.05.16-.03.3-.03.4h-.32c-.16,0-.29.21-.4.21-.16,0-.27-.46-.27-.67v-.54c0-.08.03-.4-.21-.4-.21,0-.43.45-.54.45-.35,0-1.61-.99-1.8-1.23.13,0,.27-.08.4-.08-.21-.59-1.07-.72-1.07-1.15,0-.8,1.45-1.47,2.01-1.47.24,0,2.06-.72,2.06-1.07,0-.19-.43-.56-.45-.64.27-.16.21-.13.4-.03v-.4c-.24-.03-.24,0-.4,0-.43,0-.59.46-1.15.46s-.72-.27-1.13-.19h-1.42c-.03-.4-.35-.51-.35-.75,0-.08.05-.19.08-.27-.43,0-.67-.16-.8-.43.67-.4,1.77-.75,2.41-1.18h.48c0,.86.43.62.99.62.37,0,.43.08.75,0-.27-.86-.83-.91-1.61-1.29-.21-.11-.54-.91-.8-1.07-.32-.19-1.42-.4-1.42-.59,0,0,.37-.67.4-.75h1.47c.8-1.07,2.01-2.09,3.43-2.54.37-.11.61.08.99-.05.43-.16.7-.75,1.15-.75.35,0,.48.29.83.4-.13.16-.16.21-.24.35.27.05.54-.13.67-.35.29.11.38.19.62.27h1.34c.32.21.43.35.8.54h2.06c.53.54,2.19.67,3.02.67.48,0,.78-.19,1.26-.19.78,0,1.02.32,1.69.54v-.03c.27.06.13.11.32,0,0,.08.33.32.37.35,1.1.67,2.3.8,2.97.8.24,0-.97-.64.78-.7.25,0,.13-.84.83-.19.23.22.94-.29,1.23-.35.75-.29,1.04-.35,1.87-.53.08.21.27.37.48.37.56,0,.37-.78.91-.78.16,0,.88,1.2,1.39,1.2.54,0,.54-.59,1.04-.7.05.21.35.72.64.72.43,0,.64-.35,1.15-.35,1.63,0,2.44,1.33,4.07,1.21,1.53-.12,1.4-.29,2.14.75-.16.16-.98.06-.98.3,0,.08,0,.47,1.06.42.59-.02.94-.24,1.47-.24h1.71l.4.19c.46.21.56.88,1.1.88.13,0-.16-.62-.16-.8,0-.91,1.37-.19,1.26-1.07-.32.21-1.03.42-1.46.42-.21,0-.34-.1-.34-.29,0-.59,1.61-.62,2.09-.75.35,1.1,2.04,1.61,3.48,1.61,1.52,0,1.82-.05,2.28,0,0-.56.19-.86.67-.86.4,0,1.12.19,1.21.32.21.29-.48,1.17.4.94,0-1.31,1.77-.78,1.42-1.87-.21.11-.38.16-.56.27,0,0,.21-.64.21-.8,0-.91-1.82-.37-1.82-1.26,0-.37.35-.35.35-.62s-.21-.4-.21-.67c0-.4.43-.32.75-.4-.03-.27-.24-.6.27-.59,1.04.02,1.63.56,1.66,1.39.01.4.8.38.8.89,0,.35-.48.53-.67.64.32.4.91.13,1.34.4-.13.11-.19.19-.27.32.56.27.62.59.62,1.04.83,0,.29-1.15,1.07-1.15.21,0,.99.75.99.94,0,.4-.45.32-.45.67,0,.3.8,1.54,1.4.77.39-.49.31-.85.53-1.31.13-.27.75-.27.75-.54,0-.24-.4-.37-.4-.72,0-.32.35-.54.67-.54.24,0,.43.16.67.19,1.1,0,.88.67,1.74.67,0,.45.11.43,0,.67-.84.41-.48.83-.48,1.02,0,.16.62.43.62.67,0,.35-1.38,1.53-1.55,1.26-.33-.5-.45-.03-.32.13-.48,0-.64.21-.88.21-.37,0-.59-.54-1.18-.54-.21,0,.19.48.19.59,0,.32-.78.88-1.21.88-.51,0-.86-.4-1.2-.61h-.48c.4.8,1.31.67,2.22.88v.4c-.43.32-.78.99-1.42.99h-.59c-.32,0,.02.74-.54.57-2.18-.67-1.37-.12-1.61-.2.37.21,1.4.24,1.4.65,0,.64-.8.37-1.26.54-.21.08-.67,1.12-.88,1.34-.62.62-.94,1.26-.94,2.33,0,.78.11.88,0,1.21.27-.05.4-.27.67-.27.59,0,1.02,1.5,1.02,2.14.4,0,.59-.4.99-.4.37,0,.99.46,1.2.53,1.18.45,2.3.89,3.29,1.61h1.74c.75.48.59,1.15.59,2.01,0,.78.94,1.61,1.61,2.14.25.2.48-.32.8-.32.03-.29.38-.48.48-.64-.38-.45,0-1.91-.94-2.38.54-.11,2.14-1.31,2.14-1.79,0-1.77-.93-2.11-1.55-3.16.35-.14,1.11-.34,1.01-1.13-.05-.4-.88-.99-.54-1.2.87-.55-.08-.94-.08-1.21,0-.48.4-.67.8-.67.75,0,1.23.46,2.01.46.4,0,.4-.27.75-.27.75,0,.91.91,1.66,1.02,0,.99,1.45.45,1.55,1.21.08.56.27,1.87.72,1.87.32,0,.4.59.88.59.67,0,1.53-.99,1.53-1.39,0-.37.43-.61.61-.75.11.11.38.35.46.35.08.72,1.22.86.94,1.47-.23.49.64,1.04.88,1.12-.05.27.19.48.19.75,0,.32-.27.4-.4.48.35.27.7.64,1.29.64v.08c0,.91,1.36,1.2,2.01,1.12h0ZM68.27,58.25c0,.27.11.67.38.67.55,0,1.43-.41,2.06-.72-.08.04-1.19-.36-1.65.1-.02.02-.37.64-.78-.05h0ZM71.16,57.07c-.52.17-.36.21-.22.42l-.08-.15c.19,0,.19-.03.32-.03.78,0,2.48.26,2.49-.75-.67,0-1.93.32-2.52.51h0ZM73.68,56.56h0ZM63.46,52.63h.05c-.72.48-1.47.75-2.09,1.53.81,0,.4-.12.88-.19.3.68.99-.08,1.12-.08.3,0,.78-.51,1.18-.59,0,.37-.19.45-.3.67h.54c.03.19.27.32.46.32.35,0,.45-.27.75-.27.64,0,.96.35,1.52.35v.32c-.4.13-.99,0-1.2,0-.59,0-1.66.75-1.71,1.29.27-.16.38-.38.64-.38-.25.32-1.37,3.19-.05,3.19.95,0,.2-3.14.83-3.17.98-.06.53-.71.97-.71.21,0,1.2.48,1.2.8,0,.37-.21.62-.29.99.32,0,.27-.11.54-.19.11.43.11.61.37.83.37,0,.62-1.28.72-1.71.11.11.43.45.75.45.61,0,.05-1.05-.45-1.2h-.7c-.67-.43-1.5-.3-2.11-.91-.21-.21-.05-.48-.21-.8-.05-.11-1.18-1.02-1.34-1.02h-.21c0,.05.03.27-.03.37-.11-.11-.32-.59-.64-.59-.27,0-.16.43-.43.56l-.74.13Z"/>
  </g>
  <g>
    <path class="st1" d="M193.71,86.74c0,.48-.35,1.1-.86,1.1-.37,0-.67-.37-.67-.75,0-.78.37-1.36.37-2.17.38.64,1.15.97,1.15,1.82Z"/>
    <path class="st1" d="M207.71,92.55c-.08,0-.03-.16-.08-.24-.03-.05-.35-.08-.43-.14-.14-.08-.32-.72-.38-.94-.19-.62-.8-.51-.99-.88-.16-.32-.24-.48-.4-.8-.11-.24-.37-.19-.62-.24-.21-.06-.64-.8-.72-1.07v-.22h.16c.27,0,.32.13.54.24h.88c.59.19.78.59.99,1.02.05.14.19.11.29.14.4.13.59.45.85.72.51.51.8.86,1.55,1.1.4.13.86.27.86.67,0,.02-.05.11-.05.13h.21c.11,0,.19.13.24.24l-.11.27c0,.35.21.43.51.43,0,.56.32.72.62,1.02.16.16.54.24.54.51v1.15c-.27.11-.14.48-.14.75,0,.3-.54.38-.72.38-.13,0-.62-.7-.64-.72-.51-.51-.99-.72-1.47-1.2-.54-.53-.75-1.02-1.04-1.63-.05-.13-.38-.67-.46-.67Z"/>
    <path class="st1" d="M216.79,94.85c-.05,0-.03-.29-.05-.4-.22-.03-.35.14-.56.14-.99,0-.56-.94-.91-1.47,0-.03.03-.11.03-.13-.05-.13-.21-.13-.35-.16-.13-.03-.4-.99-.4-1.12,0-.45.56-.27.94-.27.83,0,.72-.83,1.1-1.21.19-.19.46-.19.75-.24.4-.08.4-.35.62-.56-.11-.11.19-.32.19-.32.16-.08.14-.14.27-.19.08-.03.11-.16.16-.21.24-.24.86-.11.96-.32.21-.43.8-1.44,1.23-1.44.45,0,.4.27.4.67,0,.56,1.13.24,1.13.78,0,.24-.59.08-.59.32,0,.05.05.13.11.13-.05.08-.78.37-.78.37.03.08.08.16.11.24-.08.03-.19.11-.19.19,0,.4.72,1.74,1.2,1.74-.08.4-.3.27-.59.27-.08,0-.19.02-.27.05l-.13.27c-.13.59-.35.75-.35,1.2-.32.05-.59.45-.59.62,0,.19.13.24.13.37,0,.22-.32.61-.32.91-.43.11-.48.43-.83.43-.27,0-.35-.21-.35-.37-.43-.11-.72-.43-1.18-.43-.21,0-.35.29-.67.29-.08,0-.13-.13-.21-.13Z"/>
    <path class="st1" d="M223.94,93.09c-.11.13-.13.27-.29.27-.4,0-.56-.51-.56-.91,0-.54.43-.43.88-.43s.64-.11,1.02-.11c.35,0,.59.19.94.19.54,0,.72-.45.8-.86.08,0,.11-.13.13-.22h-.16c-.32.22-.7.45-.86.62h-.21l-1.88-.32c-.69,0-1.02.88-1.02,1.53,0,.16-.21.29-.24.4-.19.61-.48.86-.48,1.45,0,.32.37.32.54.35v1.28c0,.16.21.35.43.35.3,0,.4-.94.4-1.07,0-.35-.24-.54-.24-.88,0-.19.21-.32.4-.32.08,0,.13.03.21,0l-.11.56c0,.35.43.48.43.83,0,.08.03.16,0,.24h.35c0-.29.59-.27.59-.56-.11-.03-.37-.32-.37-.48,0-.05.08-.1.11-.16-.16-.08-.67-1.04-.67-1.13.75,0,.8-.59,1.42-.78v-.21c-.16-.03-1.58.4-1.61.48l.05-.11Z"/>
    <path class="st1" d="M219.39,98.98c-.27,0-.24-.19-.56-.19-.08,0-.03.19,0,.27-.88-.35-1.79-.4-2.84-.4-.32,0-.4-.35-.67-.35-.51,0-.94-.03-1.47-.19-.4-.13-.8.13-1.07-.13-.27-.27-.48-.59-.88-.59.03-.08.51-.56.67-.56.08,0,.13.11.21.11.16,0,.27-.16.43-.16.8,0,1.15.86,2.03.86.4,0,.48-.4.8-.4.54,0,.72.48,1.21.48l.8-.11h.21c-.03.14-.94.21-.99.19.29.29.64.35,1.12.35.16,0,.16.19.22.24.19.19.4-.03.64.05.24.08.24.16.43.24-.05.11-.24.3-.29.3Z"/>
    <path class="st1" d="M224.45,99.14h-.96c-.19,0-.59.03-.59-.27,0-.22.3-.19.48-.19.48,0,.67.19,1.07.19s.54-.16.78-.27c-.19.35-.43.43-.78.54Z"/>
    <path class="st1" d="M222.2,99.11h-.24l-.21-.11c-.27.11-.38.27-.64.27-.22,0-.54-.08-.54-.19,0-.3.21-.27.46-.27s.37.05.51.11c0-.08.03-.14.03-.22h.64c0,.22-.05.35,0,.4Z"/>
    <path class="st1" d="M223.16,100.26c-.13,0-.16-.27-.16-.35-.27,0-.7-.03-.7-.29,0-.22.32-.16.51-.16h.27c0,.38.4.3.4.62,0,.08-.13.19-.21.19h-.11Z"/>
    <path class="st1" d="M219.95,98.68h.24c.13,0,.13.14.24.19-.03.16-.14.27-.27.27-.08,0-.22-.11-.22-.19v-.27Z"/>
    <path class="st1" d="M226.8,99.51c-.13,0,0,.27-.08.35-.13.13-.59.45-.88.45-.11,0-.19-.13-.19-.24,0-.59.51-.59.91-.72.08-.03.08-.19.13-.24.27-.27,1.45-.37,1.69-.22-.26.4-1.15.62-1.58.62Z"/>
    <path class="st1" d="M228.33,94.96c0,.05-.19.35-.27.35-.16,0-.48-.3-.48-.51,0-.32.75-.11.75.16Z"/>
    <path class="st1" d="M230.85,94.64c.03.21.32.27.32.48,0,.05-.11.05-.16.05-.38,0-.56-.27-.94-.27h-.62c-.11,0-.48-.11-.48-.11,0-.13.13-.19.19-.24h1.2c.05.19.24.11.4.11l.08-.03Z"/>
    <path class="st1" d="M228.89,92.23v-.19c.21,0,.51-.03.61-.05-.02-.21-.21-.27-.21-.4,0-.16.27-.19.27-.35-.45-.11-.64-.32-.69-.7-.22.11-.24.32-.24.54,0,.35.21.45.21.75v.35c0,.16.08.51.35.51-.13-.19-.19-.29-.29-.45Z"/>
    <g>
      <path class="st1" d="M227.5,87.06c-.02-.07-.09-.12-.14-.19-.1.14-.22.18-.22.32,0,.16.29.24.28.49,0,.19-.1.32-.27.32-.07,0-.12-.12-.12-.19-.07.04-.17.02-.24.02-.34,0-.63-.38-.62-.83,0-.16.05-.23.13-.28-.02-.07-.07-.16-.09-.23h-.34c0,.06-.03.13,0,.2-.15,0-.19-.07-.24-.12,0,0-.05.09-.08.12-.07-.02-.24-.22-.24-.22-.25.23-.21,1-.48.99-.2,0,0-.44,0-.54,0-.07-.09-.16-.09-.23,0-.23.1-.37.16-.6.51.01.4-.51.84-.5.32,0,.26.38.43.38.05,0,.1,0,.15,0,0-.16.08-.28.23-.3,0-.33.44-.23.52-.36.08-.16.06-.49.08-.56.17,0,.29.12.39.22.19.19.58,1.57.58,1.78,0,.26-.3.39-.31.79-.1-.03-.31-.54-.31-.59l.02.09Z"/>
      <path class="st1" d="M221.59,85.7h-.17c.26-.7,1.09-.96,1.37-1.47.05-.12.05-.23.13-.3,0,.23.12.28.21.37-.1.07-.12.14-.25.14-.05.21-.22.25-.42.25-.11.53-.58.83-.87,1.01Z"/>
      <path class="st1" d="M222.94,79.97c.1-.16.15-.48.16-.69,0-.28-.11-.47-.11-.75,0-.23.06-.46.25-.46.27,0,.21.42.43.43.15,0,.22-.18.32-.23,0,.02.05.09.04.12,0,.05.05.12.05.16,0,.3.31.66.3,1.05-.01.51-.45.55-.46,1.04,0,.35.32.94.59,1.06,0-.02,0-.09,0-.12,0-.09.12-.18.27-.18.29,0,.36.54.5.55.1,0,.12-.16.22-.16.05,0,.1.05.15.05-.03.14-.15.16-.15.28,0,.04.12.03.17,0,0,.18.14.28.31.28,0,.07,0,.12,0,.19,0,.05-.05.14-.1.14-.07,0-.1-.12-.12-.19-.14-.28-.72-.5-.87-.71-.12.16-.05.25.02.44-.34,0-.36-.52-.7-.52-.14,0-.25.14-.39.13-.17,0-.36-.22-.36-.33,0-.14.1-.21.15-.26v-.23s-.14,0-.14,0c-.05.07-.1.16-.18.16-.1,0-.53-.29-.53-.43,0-.37-.08-.86.16-.81Z"/>
      <path class="st1" d="M227.09,84h-.37c.02.18.11.42.21.46v.14c-.08,0-.15,0-.22,0-.17,0-.22-.19-.12-.33v-.14c-.17,0-.34-.24-.36-.31v-.14c.12,0,.3,0,.32,0,.05,0,.12-.09.12-.14,0-.33-.53-.5-.58-.69.08-.02.15-.09.22-.09.19,0,.34.1.54.1,0,.07.02.16,0,.23.05,0,.1,0,.15,0,.02.14,0,.37,0,.37,0,0,.17.21.19.21-.03.14-.08.21-.1.3Z"/>
      <path class="st1" d="M224.69,83.28c.1.12.7.2.7.41,0,.4-.57.6-.79.73,0-.4-.08-.84-.08-1.05,0-.05.1-.11.15-.11.05,0,.12.1.14.12l-.12-.1Z"/>
      <path class="st1" d="M225.87,84.28c0,.28-.28.46-.28.74,0,.21.12.16.12.3,0,.05-.1.11-.15.11-.1,0-.53-.45-.53-.62,0-.07.15-.14.22-.14,0-.07.14-.65.26-.67.25-.07.36.13.36.26Z"/>
      <path class="st1" d="M226.19,84.05c0,.42-.33.53-.33.88-.03,0-.1,0-.12,0,.08-.28.23-.46.24-.88.07,0,.14,0,.22,0Z"/>
      <path class="st1" d="M226.49,84.64c0,.26-.18.46-.4.46-.05,0-.14-.07-.14-.12,0-.14.15-.21.23-.35.12.05.24.1.31,0Z"/>
      <path class="st1" d="M225.37,83.11c0-.16,0-.26,0-.35h.22c.07.22.39.29.38.59,0,.12-.27-.12-.27-.24-.12-.03-.22,0-.34,0Z"/>
      <path class="st1" d="M224.03,82.92c-.15,0-.69-.9-.69-.9h.24c.29.19.56.15.63.43.05.19-.08.46-.18.46Z"/>
      <path class="st1" d="M224.29,82.18s.19.03.24,0c-.05-.05-.19-.03-.24,0Z"/>
    </g>
    <path class="st1" d="M223.4,74.85c-.48,0-.4-.35-.4-.75,0-.56.56-1.61.94-1.61.67,0,.08,2.36-.54,2.36Z"/>
    <path class="st1" d="M214.25,77.31c.21,0,1.13-.67,1.47-.67.13,0,.32.24.32.4,0,.37-.8,1.2-1.2,1.2s-.59-.19-.59-.53c0-.16-.13-.4,0-.4Z"/>
    <path class="st1" d="M212.43,94.4c-.05,0-.16-.29-.19-.38-.11-.21-.54-.08-.54-.29,0-.13.37-.32.56-.35.13.4.29.91.67.91,0,.08,0,.19.03.27h-.19c-.16,0-.24-.16-.35-.16Z"/>
    <path class="st1" d="M213.63,94.26h.27c.08,0,.16.11.24.13-.03.16-.14.32-.3.32s-.21-.19-.21-.32c0-.02-.03-.13,0-.13Z"/>
    <path class="st1" d="M206.94,93.09c.21.27.4.43.37.75-.13-.03-.48-.45-.48-.64v-.11h.22v.13l-.11-.13Z"/>
    <path class="st1" d="M206,91.45c.16.1.59.64.37.64-.11,0-.46-.43-.48-.59h-.02l.13-.05Z"/>
    <path class="st1" d="M231.01,66.66l.1-.37c-.16-.05-.19-.22-.21-.35,0,.08-.05.16,0,.24-.13,0-.24.11-.32.11-.13,0-.27-.16-.27-.29,0-.16.75-.67.83-.67.21,0,.38.21.7.21,0,.08-.05.27.03.27l.24.22c0,.08-.05.19,0,.27-.08,0-.16.05-.24,0-.08.48-.29,1.31-.67,1.31-.08,0-.08-.16-.08-.24v.16c-.21,0-.37-.32-.37-.43,0-.06.27-.43.27-.43Z"/>
    <path class="st1" d="M233.82,65.72c-.21,0-.32-.16-.4-.19-.24.24-.29.67-.64.67-.14,0-.19-.27-.16-.4-.16-.11-.21-.16-.21-.29,0,0,.51-.38.51-.4.46.14.54-.32.91-.32.59,0,.27.94,0,.94Z"/>
    <path class="st1" d="M234.65,65.35c-.08,0,0-.13,0-.21,0-.16.08-.35.08-.45-.32-.08-.48-.24-.8-.24-.16,0-.19.19-.27.21-.22.11-.38-.03-.59.08-.35.16-.83.37-1.39.37-.19,0-.38,0-.38-.11,0-.08.24-.13.35-.19.56-.38.8-1.05,1.5-1.05h1.66c.46,0,.62-.83.86-.83.03,0,.37-.64.45-.67-.08.08-.13.19-.13.29,0,.05.08.13.13.13.4,0,.46-.27.78-.37.56-.19,1.47-1.31,1.47-2.17,0-.19-.11-.19-.11-.32,0-.32.27-.99.62-.99.05,0,.03.35.35.08-.03,0-.05-.03-.08-.03-.08,0-.13-.24-.05-.24.19,0,.29.05.32.13.08.19.05.35.05.53,0,.38.37.56.37.94,0,.43-.37.48-.37.83v.16c-.08.08-.16.03-.24.05-.27.08-.19.91-.19,1.2,0,.24-.29.4-.29.75,0,.24.08.35.13.51-.32.16-.32.43-.64.54-.11-.21,0-.24.03-.43-.37.24-.62.27-.72.64-.05,0-.13-.08-.13-.13h-.27c-.16.16-.32.32-.54.32-.56,0-.53-.46-.78-.46-.08,0-.16.13-.16.21,0,.11.24.43.27.43-.08.03-.19.03-.27.03-.19,0-.51.43-.64.69-.21-.05-.19-.27-.38-.27Z"/>
    <path class="st1" d="M238.82,56.83c.08.03.19,0,.27,0,.45,0,.64-1.04.64-1.39,0-.11-.13-.16-.13-.27,0-.19.11-.27.16-.35.72.48,1.05,1.34,2.09,1.34.21,0,.4-.16.56-.05-.05.14-.16.19-.16.32,0,.16.22.32.32.35-.24.16-.43.24-.83.24-.56,0-.75.61-.96.93-.43-.27-.69-.32-1.15-.62-.08.03-.19.13-.19.22-.35,0-.8-.27-.8.19,0,.27.4.27.51.37-.21.29-.43.19-.64.4h-.16v-.62c0-.11-.13-.16-.13-.27,0-.29.43-.48.48-.67v-.21c.05.05.11.08.19.13l-.05-.05Z"/>
    <path class="st1" d="M243.08,55.74l.13.11c-.11.16-.43.56-.67.56-.08,0-.05-.16,0-.24.11-.16.4-.4.62-.4l-.08-.02Z"/>
    <path class="st1" d="M244.98,54.96c-.62,0-.62.54-.99.54-.03,0,0-.11,0-.13,0,0,.27-.59.59-.59.16,0,.29.03.4,0v.19Z"/>
    <path class="st1" d="M245.84,54.37c.08,0,0-.14.03-.21.05-.16.37-.16.43-.16-.03.16-.24.54-.46.54-.05,0-.05-.16,0-.16Z"/>
    <path class="st1" d="M241.18,50.94c-.72,0-.8.86-.8,1.55,0,.62.56.91.78,1.37,0,0-.06.03-.08.03-.11.03-.24-.16-.27-.27h-.27c-.32,0-.32.59-.64.59-.08,0,0-.64,0-.78,0-.48.11-.8.11-1.21,0-.38-.16-.43-.16-.75,0-.4.13-.51.13-.83v-1.58c0-.4-.4-.56-.4-.96,0-.56.16-1.29.56-1.37,0-.16.11-.21.11-.35v-.56h.19c0,.54.21.88.32,1.23.11.37-.11.64.08,1.02v.64c-.05.27.13.56.19.72.22.67.56,1.2.72,1.85-.13-.19-.32-.35-.56-.35Z"/>
    <path class="st1" d="M175.29,26.52c-.59-.59-1.55-.8-1.55-1.82,0-1.71,1.85-3.51,3.21-3.88.48-.13.61-.72,1.28-.72.32,0,.43-.54.59-.61.88-.43,1.55-.21,2.49-.67.67-.32,2.73-.48,2.73-1.39,0-.29-.75-.67-1.07-.67-1.34,0-2.6,1.52-4.02,1.52-.32,0-.48-.32-.8-.32-.51,0-.51.32-.86.32-.99,0-1.74,1.28-2.41,1.28-.4,0-.67.19-1.07.19-.19,0-.27.16-.27.27,0,.16.19.27.19.48,0,.75-1.39,1.15-1.39,1.61,0,.21.37.27.4.59-.43.11-1.29.3-1.29.75v.4c0,.48-.8.43-.8,1.07,0,.32.48.53.48.53,0,0,.72-.03.8,0,.45.13.21.56.4.94.05.13.48,0,.67,0,.08,0,.13.16.19.19h2.09c-.08-.16-.19-.27-.27-.32l.27.27Z"/>
    <path class="st1" d="M267.93,25.99c-.16,0-.27-.13-.27-.27,0-.4.8-.88,1.26-.88.4,0,1.42.27,1.42.67,0,.35-2.12.48-2.41.48Z"/>
    <path class="st1" d="M260.35,27.65c.13,0,.27-.14.27-.27,0-.16-.16-.22-.19-.32h-.88c.16.32.43.59.8.59Z"/>
    <path class="st1" d="M235.13,18.81l-.27-.27c-.11.13-.21.24-.21.4s.08.21.21.21c.21,0,.24-.24.27-.4h-.08l.08.05Z"/>
    <path class="st1" d="M217.86,21.04c-.19.11-.37.19-.62.19-.3,0-.59-.08-.59-.32,0-.27.32-.4.59-.4.37,0,.62.08.62.4,0,.16-.13.24-.22.32l.22-.19Z"/>
    <path class="st1" d="M207.61,15.33c-.32,0-.4-.13-.4-.4,0-.43.32-.43.48-.59.62-.62.86-1.61,1.93-1.61h.35c0,.37.14.37-.08.59.19-.05.3-.27.48-.27.37,0,1.47.69,1.47,1.07,0,.64-1.39.75-1.87.67-.11,0-.94.14-.94.14l-1.42.4Z"/>
    <path class="st1" d="M201.45,11.45c.13,0,.88.35,1.07.4-.05.48-.94.54-1.26.54-.16,0-.54-.43-.54-.67,0-.27.56-.27.72-.27Z"/>
    <path class="st1" d="M207.34,13.54c0,.24-.29.4-.54.4-1.18,0-2.03-.48-3-.48-.32,0-1.02-.75-1.42-.96.88-.29,1.15-.59,2.01-.86-.27,0-.96-.05-1.12-.05-.75,0-1.26-.22-1.95-.56,1.12-.32,1.53-1.58,2.81-1.58.75,0,1.18.72,1.61,1.04-.27.11-.21.05-.32.03.03.32,0,.4,0,.54,0,.16-.3.37-.51.48.27-.08.35,0,.56,0,.32,0,.48.27.8.27h.54c.54,0,.54.19.88.54-.27.21-.21.27-.21.53s-.38.29-.53.35c.19.05.4.14.4.32Z"/>
    <path class="st1" d="M204.07,16.81c.16-.08.29-.19.4-.27h.4c-.05.37-.21.53-.53.53-.13,0-.24-.14-.27-.27Z"/>
    <path class="st1" d="M201.13,9.79c-.4.05-.91.14-1.07-.21h.99l.08.21Z"/>
    <path class="st1" d="M213.58,14.74c-.03.19-.16.4-.35.4-.32,0-.46-.19-.54-.32.56-.11.64.03.88-.08Z"/>
    <path class="st1" d="M169.72,11.05c-.45.35-.69-.03-1.12.21-.24.13-.29.62-.54.59-.13-.03-.21-.16-.29-.27h.02c-.4,0-.67-.08-.75-.32.21-.11.35-.16.56-.21-.24,0-.37-.03-.48-.05.13-.08.27-.14.4-.24-.24-.08-.37-.24-.62-.24-.29,0-.8.35-1.21.35-.22,0-.37-.08-.59-.11.24-.43,1.5-.51,2.06-.51.67,0,1.04.35,1.55.35.4,0,.59-.35.99-.35.32,0,.64.21.8.27-.05.48-.4.24-.72.48-.08.03-.19.03-.27,0v.27l.19-.21Z"/>
    <path class="st1" d="M179.63,10.38c-.32,0-.46-.13-.46-.4,0-.37,1.1-.8,1.5-.8l.37.86c-.19.14-1.23.35-1.42.35Z"/>
    <path class="st1" d="M178.69,10.19c.03.24,0,.29,0,.4-.16.24-.43.13-.67.13l.13.32c-.16.08-1.47.13-1.47,0,0-.4.21-.62.53-.72-.03-.21,0-.3,0-.35h.88c-.05.13-.21.22-.27.22.16.03.62.05.86,0Z"/>
    <path class="st1" d="M175.21,11.72c-.16,0-.37-.27-.54-.27-.05.27-.16.27-.4.27-.13,0-.27-.08-.27-.19,0-.38,1.07-.54,1.34-.54.35,0,.62.13.75.32-.54,0-.51.4-.88.4Z"/>
    <path class="st1" d="M175.21,10.46c-.32,0-.75.32-1.07.32-.19,0-1.28-.48-1.34-.51.16-.13.21-.19.35-.29h1.12c-.29-.11-.19-.21-.45-.05v-.35c.8,0,.83-.54,1.61-.54.03-.24.21-.46.45-.46.06,0,.08.24.08.32-.11.08-.24.21-.24.35-.43.27-.96.43-1.23.7.75.1.94.16,1.53.4-.22.16-.51.11-.8.11Z"/>
    <path class="st1" d="M240.75,19.7c-.22,0-.35.27-.67.27-.19,0-.3-.27-.48-.27-.22,0-.32.19-.54.19-.16,0-.32.21-.59.21-.24,0-.35-.11-.48-.27-.19.16-.32.4-.59.4-.7,0-1.34-.56-1.34-1.21s.64-1.07,1.2-1.07c.83,0,.88.86,1.61.86,0-.4.13-.72.45-.72.48,0,2.06.56,2.62.72-.11.37-.48.67-.48.88h-.72Z"/>
    <path class="st1" d="M156.55,64.73c-.08,0-.19-.05-.19-.14-.06,0-.14-.08-.14-.13.4-.19,1.1-.46,1.55-.54-.05.27-.19.16-.35.24-.08.03-.03.19-.05.27-.08.16-.59.3-.83.3Z"/>
    <path class="st1" d="M172.1,82.94c.03.13.21.19.29.19.21,0,.43-.21.48-.32-.35,0-.53.05-.78.13Z"/>
    <path class="st1" d="M168.33,28.18c.13,0,.19-.27.32-.27.38,0,.56.35.94.4v.35c-.35.19-.67.45-1.12.45-.32,0-.48-.05-.48-.32,0-.11.29-.61.35-.61Z"/>
    <path class="st1" d="M177.3,27.59c0,.19-.35.13-.35.13-.35,0-.94-.35-.94-.67,0-.54,1.29,0,1.29.54Z"/>
    <path class="st1" d="M184.79,23.04c.32,0,.94-.19,1.07-.29-.27-.21-.35-.51-.67-.51-.24,0-.4.3-.4.54,0,.08-.08.27,0,.27Z"/>
    <path class="st1" d="M238.4,22.24c.32-.43.67-.8,1.28-.8.7,0,1.23.46,1.26,1.07h-.8c-.48-.27-1.1-.21-1.61-.4l-.13.13Z"/>
    <path class="st1" d="M243.22,18.95c.24.19,3.05.53,3.16.53.16,0,.27.13.27.27,0,.29-.78.4-1.21.4-.69,0-1.95-.32-1.95-.99l-.27-.21Z"/>
    <path class="st1" d="M239.07,21.09c0,.21-.21.35-.4.35-.29,0-.32-.1-.32-.35,0-.43.72-.37.72,0Z"/>
    <path class="st2" d="M239.62,94.57l-1.03,4.16c-.16-.12-.33-.21-.56-.21-.11,0-.4.03-.4.16h-.56c-.19,0-.43,0-.43-.21,0-.32.51-.46.67-.54-.37-.38-.21-.75-.35-1.15-.1-.32-.86-.62-1.12-.75-.29-.13-1.02-.27-1.44-.27-.4,0-.56-.7-.99-.56v-.24c-.08.21-.19.48-.4.48-.08,0-.24,0-.27-.08-.13-.27,0-.38-.13-.59-.14-.21-.43-.11-.48-.32.37-.19,1.18-.13,1.37-.45h-.19c-.29.08-.48.11-.78.11-.13,0-.24-.06-.37-.08-.08-.03-.13-.16-.16-.24-.19-.38-.83-.21-.83-.59,0-.16.21-.24.38-.24.32,0,.51-.46.99-.46.46,0,.8.43,1.29.54v.96c0,.13.16.24.4.24,0,.11.37.54.54.54.19,0,.43-.4.48-.45.21-.21.27-.24.64-.35.24-.08.56-.56.88-.62.03.13.24.11.32.13.32.11.54.43.7.51h.72c.11.11.33.18.46.22l-.06-.06s.05.04.07.06c.02,0,.04.01.06.02v.03c.15.11.37.21.6.31Z"/>
    <path class="st1" d="M234.09,96.54c.05.22.11.11.11.29,0,.16-.08.27-.21.27,0,.27.05.56-.16.56-.08,0-.16-.13-.16-.21,0-.27.27-.3.27-.45,0-.19-.03-.43.16-.46Z"/>
    <path class="st1" d="M231.65,101.01v.4h-.27c-.32,0-.7-.16-.8-.27.48-.11.67-.16,1.07-.13Z"/>
    <path class="st2" d="M216.23,21.04c.59.96,5.22,1.5,6.11,1.74h2.94c0-.83.38-1.13,1.07-1.07,5.51.46,3.35,1.82,3.35,2.01,0,.75.48,2.14,1.61,2.14.43,0,.59-.83.67-1.21.88.05.99.67,1.74.67h4.28c.16-1.04.46-2.14,2.54-2.14s3.85.4,5.49.93c.78.24.8.88,1.34,1.34.59.51,2.09.13,3.08.13,1.82,0,2.73.48,3.08,1.87l6.16.13c.51-.03,2.57,2.6,1.74,0-.11-.36.48-.53,1.34-.53,3.11,0,5.92,1.31,8.03,2.54,1.53.88,4.66,1.6,5.62,2.89-.72.24-1.15.19-1.61.72-.3.35-.4,1.34-.94,1.34-1.21,0-2.6-2.28-4.28-2.28-.54,0-.27.67-.4.94-.32.64-1.87.46-1.87,1.61,0,.43,3.17,1.93-.8,2.01-2.09.04-3.77,3.08-6.16,3.08-.8,0-2.79-2.49-4.95,2.14-.26.56,0,.88,0,1.2,0,.48-.94.72-.94,1.61,0,.56-1.2.72-1.07,1.47-1.1.27-1.47,1.74-2.01,2.54-.75-.59-1.07-3.83-1.07-4.82,0-1.15.94-1.77,1.61-2.14.8-.46,1.31-1.47,1.87-2.28.48-.7,1.14-.47,1.87-.94,2.1-1.35.7-1.93.4-1.87-2.92,3.6-2.73,1.28-2.27.94-.91-.13-1.13,0-1.61,0-1.85,0-2.65,1.05-3.08,2.81h-1.47c-.67,0-1.18-.54-2.27-.54-.88,0-4.07.27-5.09.54-1.15.32-2.25,1.71-3.08,2.54-.56.56-2.01,1.39-2.01,2.14,0,.16.83,2,2.41.8.53-.4,1.7,1.01,1.7,1.73,0,.59-.31,1.2-.47,1.47-.42.74-.1,1.24-.29,2.02-.16.7-.76,1.57-1.18,2-1.07,1.07-2.51,4.29-4.04,4.29-.83,0-1.87-.27-1.87-.27-.64.51-.86.94-1.2,1.66-.11.21-.59.48-.78.67-.21.21-.48.4-.8.4-.05.46.22.7.46.94.59.59.99,1.2.99,2.25,0,.62-.16.91-.54,1.02-.16.05-.83.08-.83.32-.32.08-.37.08-.53.24h-.4c0-.13.13-.22.16-.35-.13-.03-.13-.16-.13-.27,0-.19.24-.54.24-.62,0-.16-.13-.29-.13-.46-.16-.03-.21-.13-.27-.19v-.27c.22,0,.43-.16.43-.35,0-.32-.4-.53-.72-.53-.19,0-.29.13-.37.13-.19,0-.27-.32-.27-.45,0-.32.3-.29.3-.56,0-.32-.14-.32,0-.59-.4,0-.54-.29-.86-.29-.86,0-1.47.8-2.22.8,0-.48.51-.67.51-1.1,0-.16-.3-.51-.51-.51-.27,0-.37.27-.43.35-.21.35-.83.75-1.15.99-.37.27-1.15.08-1.15.64,0,.27.45.37.56.45.32.24.21.51.54.72.21.13.48.05.7.05.16,0,.16-.59.37-.59.3,0,.4.21.59.32.38.24.78-.05.99.24-.54.54-1.69.54-1.93,1.26-.11.32-.56.35-.56.67,0,.38.51.64.72.67l.03.51h.06l-.03.03c.24.14.24.46.32.59.48.72.75,1.15.75,2.3,0,.78-.4,1.04-.4,1.63-.4.08-1.12,1.15-1.29,1.47-.24.51-.43,1.5-1.07,1.5-.05.27-.19.38-.4.48-.75.43-1.04,1.18-2.28,1.18-.27,0-.4-.21-.67-.21-.05,0-.32.51-.32.51-.32.32-.83.21-1.34.46-.21.11-.75.19-.94.38-.21.21-.05.56-.35.56-.24,0-.16-.54-.13-.67-.51-.24-.83-.08-1.29-.3-.53.83-1.85,1.02-1.85,2.17,0,.24.14.29.24.4.62.62.88,1.31,1.55,1.74.64.43,1.07,1.61,1.07,2.49,0,.62-.32.86-.32,1.34-.86.22-.94.51-1.63.86-.32.16-.27.59-.59.59-.08,0-.08-.16-.08-.24v.29c0,.27-.54.67-.64.67s-.21-.37-.21-.54c0-.22,0-.32.11-.37-.11-.05-.16-.27-.19-.4-.4,0-.94-.13-.94-.53-.59,0-.29-.4-.62-.72-.37-.38-.75-.4-1.18-.54-.05,0-.13-.35-.13-.35-.08-.3-.4-.35-.7-.35-.22,0-.16.16-.16.29,0,.24.11.3.11.51,0,.8-.78,1.02-.78,1.74,0,.83.91.51.91,1.29h-.05c.11.19.13.67.32.86.72.72,2.3.88,2.3,2.22,0,.27-.11.27-.11.51,0,.48.4.64.51.96.11.35.11.48.24.78-.21.03-.24.03-.35.03-.08,0-.11.11-.19.11-.27,0-.29-.19-.45-.24-.83-.27-1.58-1.07-1.87-1.95-.24-.78-.29-1.34-.59-1.96-.19-.37-.37-1.34-.8-1.34-.27,0-.11.16-.35,0-.05,0,0-.11,0-.16,0-.37.05-.64.13-1.02h.13c-.21-.11,0-.72,0-1.02,0-1.18-.7-1.88-.7-2.73-.35,0,.11-.8-.16-1.2-.08-.13-.29-.08-.35-.13-.16-.16-.08-.27-.24-.43-.45.45-.64,1.23-1.39,1.23-.4,0-.43-.32-.43-.67s.13-.51.13-.8c0-.13-.13-.21-.16-.35-.19-.56-.51-.99-.78-1.42-.37-.3-.67-.51-.88-.86-.21-.32-.16-.75-.27-1.07-.1-.37-.56-.54-.96-.62,0,.8-.75.96-1.44.96-.43,0-.43-.13-.64-.27-.19.4-.75.43-.83.67-.11.37-.08.67-.32.91-.48.48-1.26.62-1.69,1.04-.54.53-1.02,1.07-1.53,1.58-.21.22-.51.54-.69.59-.48.16-1.05.24-1.05.8,0,.48.19.75.19,1.18,0,.67-.32,1.1-.32,1.61l.13.7-.13.03c0,.08-.19.08-.27.11-.38.11-.3.8-.51.91-.32.16-.37.05-.51.32-.11.21-.13.53-.35.53-.22.03-.37-.08-.4-.27-.13,0-.21-.19-.24-.27-.22-.65-.51-1.18-.7-1.74-.11-.37-.48-.64-.59-.86-.21-.43-.08-.78-.3-1.1-.21-.35-.21-.51-.32-.86-.13-.4-.61-1.28-.8-1.88-.16-.53-.46-1.04-.46-1.55,0-.08-.04-.3-.04-.38h.02c0-.35.13-.41.13-.74,0-.43-.27-.75-.27-1.1,0-.08.16-.27.16-.37h-.21c-.35.35-.38,1.26-1.07,1.26-.83,0-1.15-.83-1.55-1.23.24-.16.43-.03.67-.11.21-.05.24-.29.35-.4-.21-.05-.4-.05-.62-.05-.53,0-1.31-.54-1.58-.94-.22-.35-.38-.96-.7-1.07-.3-.08-.51-.02-.8-.02-.32,0-.4.21-.67.21l-.7-.19c-.11.06-.19.14-.24.19l-.94.05s-.11,0-.13,0c-.51,0-1.69-.32-2.41-.32-.13,0-.91-.21-.94-.24-.27-.27-.27-1.07-.83-1.07-.29,0-.4.24-.56.4h-1.34c-.43-.13-.64-.48-.91-.75-.32-.32-.75-.16-1.04-.46-.16-.16-.08-.37-.13-.48-.29-.59-.88-1.42-1.63-1.42-.38,0-.54.48-.54.85,0,.27,0,.4.06.62.16.64.91,1.79,1.53,1.93,0,.29.16.38.18.62.32-.08.27-.43.54-.48.03.11.03.19.03.29,0,.32-.19.54-.19.86,0,.38.69.56,1.1.56,1.79,0,1.93-1.1,2.89-1.82v.99c.37.78.88.91,1.66,1.15.29.08.32.54.51.64v-.02c.13.24.51.19.51.43,0,.61-.78.83-.78,1.47-.4,0-.67.11-.78.43-.11.32-.08.78-.4.78-.4,0-.38.77-.78.77-.24,0-.75.45-.75.78-.72.13-2.36.43-2.36,1.02,0,.08.05.19.11.24-.61.29-1.44.48-2.09.64-.32.08-1.39.83-1.74.99h-.83c-.46.32-.53.54-1.09.54l-.17.1c-.08,0-.76-.33-.84-.37-.07-.03.14-.03-.03-.3-.28-.42-.47-.86-.47-1.37-.3-.03-.09-.53-.03-.78.13-.59-.32-.83-.61-1.13-.32-.32-1.06-1.24-1.06-1.89-.94-.21-1.16-.76-1.16-1.78,0-.62-.35-.75-.46-1.26-.13-.11-.27-.27-.35-.35-.11-.11-.46-.05-.54-.13-.16-.16-.11-.56-.16-.72-.08-.27-.27-.48-.37-.64-.32-.48-.59-.88-.88-1.34-.08-.13-.45-.56-.45-.64,0-.24.15-.77.18-1.16l-.58-1.41c0-.19.19-.19.21-.29.19-.59.27-.88.43-1.42.16-.54.7-.67.7-1.29,0-.45-.13-.83-.13-1.15,0-.16.13-.22.18-.27v-.27c-.21.08-.29.24-.51.24-.27,0-.43-.11-.54-.21-.43.32-.56.67-1.34.67-.56,0-.78-.67-1.34-.67s-.45.61-.94.61c-.51,0-.78-.72-1.28-.48h-.29c.08-.03.19-.11.21-.16-.16-.16-.94-.56-.67-.83-.24-.35-.54-.32-.91-.51.27-.27.56-.21.56-.72,0-.19-.05-.19,0-.32-.19,0-.46.03-.46-.14,0-.83,1.93-.67,2.41-.91-.05-.21-.21-.14-.21-.32,0-.24.51-.13.64-.13h.83c.32,0,.8-.35,1.1-.54.35-.21,1.1-.24,1.55-.24.72,0,.7.4,1.31.4,0,.32,1.04.51,1.34.54h1.52c.54,0,.86-.4,1.31-.61l-.11.02c0-2.12-3.08-1.85-3.75-3.43,1.56-.4.86-1.13.8-1.28.13-.05.48-.45.48-.45-.72.27-2.68.99-2.68,1.2,0,.32.35.4.46.4,0,0,.69.11.75.11-.21.27-1.5.83-1.87.83s-1.6-2.01-2.09-2.01c-.59,0-.64.69-1.23.86-.19.03-.51.16-.64.16l-.13-.16c-.05-.05-.13-.11-.13-.19v-1.1c-.67,0-.51-1.39-1.23-1.39-.64,0-1.05.35-1.9.35-.62,0-1.15.16-1.15-.59,0-.64.11-1.07.43-1.55.11-.16.62-.27.62-.59,0-.51-.51-.86-.51-1.42,0-.35.38-.53.38-.88,0-.59-.27-1.59-.83-1.59s-.86.04-1.37.04c-.27,0-.6.04-.96.08.05-.94.91-.8.91-1.84,0-.64.59-1.87,1.07-1.87s.54.67,1.07.67c.32,0,1.03-.49-.32-1.75-.41-.38.94-.93,1.53-.93s.88.19,1.34.19c.35,0,1.15-.38,1.47-.59-.19-.51-.46-.64-.67-.94.56-.75,2.41-1.74,2.41-2.62,0-.59-.62-.7-.86-1.12.08-.05.32-.19.32-.35,0-.59-.8-.75-.8-1.34,0-.32.27-.48.27-.8,0-.53-.54-.83-.54-1.34,0-.46.48-.67.48-1.13,0-.59-.94-.56-.94-1.07,0-.62.96-1.1,1.34-1.37.62-.08.64.03.72.03.88,0,3.78,1.46,5.09,1.88,4.57,1.46,1.57,3.32.08,2.93-1.11-.29-1.74-.26-2.89-.26.53.78.35,2.41,1.87,2.55v-1.07c3.09,1.33,2.73-1.23,3.48-1.47.75-.24,2.14.4,2.14-.54,0-.48-.47-.57-.4-.8,1.15-3.56,1.75-1.21,1.34-.13-.12.3.35.54.67.54.99,0,5.01-3.59,5.62-2.01,1.22.59,2.92-.54,3.75-.54.48,0,1.35,1.66,1.47-.4,0-.19-1.17-1.43,2.49-.48,1.33.34,4.89,2.94,3.4.61-.64-.64-1.2-1.45-1.2-2.68,0-1.02,2.19-2.91,3.35-2.68,2.29.46.8.83.8,1.74,0,.83.3,4.88,1.43,4.88.87,0-.78-1.99-.22-2.6.82-.88-.32-1.66-.54-2.41.7-.37,1.26-.75,1.39-1.6.38.48.23,2.93,1.82.8,1.87,0,2.09.37,2.68,0-.11-.43-.4-.75-.4-1.07,0-1.53,3.32-1.21,4.2-1.21.62,0,.74-1.1,1.15-1.47,1.96-1.75,5.73-2.01,6.61-2.28-.3,1.26,3.16-.13,3.69-.54.72-.56,1.29-1.61,2.68-1.61,1.15,0,1.74.72,2.01,1.47h2.81c6.65,1.59-1.45,3.78-2.28,4.82,0,0-.78,1.8,2.73-1.07h0ZM170.34,56.43c-.16-.3-.59-.27-.62-.8.08.03,1.15-.67,1.87-.67.48,0,1.02.29,1.42-.02-.53-.8-.78-1.5-2.22-1.5-1.62,0-2.81.98-3.02.86-.14.16-.64,1.15-.64,1.28,0,.4.59.8.59,1.07,0,.91,1.1,2.52,1.82,2.92-.43.21-.43.86-.75,1.28l-.38-.05c.08.38.16.16.35.45.22.32-.03.54.13.86.13.29.48.13.78.19.24.05.3.32.46.48.33.33,2.03.12,2.49,0v-.48c-.54-.53-.08-.87-.08-1.18,0-.51-.38-1.04-.94-1.12.11-.83.65-.67,1.34-.67,0-.4-.43-.61-.45-1.02-.19.03-.7.3-.91.4,0-1.04-.72-1.39-1.23-2.28Z"/>
  </g>
</svg>