<?xml version="1.0" encoding="UTF-8"?>
<svg xmlns="http://www.w3.org/2000/svg" version="1.1" viewBox="0 0 234.95 239.04">
  <defs>
    <style>
      .cls-1 {
        fill: none;
        stroke: #06151e;
        stroke-linecap: round;
        stroke-miterlimit: 10;
        stroke-width: 9px;
      }
    </style>
  </defs>
  <!-- Generator: Adobe Illustrator 28.7.2, SVG Export Plug-In . SVG Version: 1.2.0 Build 154)  -->
  <g>
    <g id="Livello_1">
      <g>
        <path class="cls-1" d="M30.65,209.78l25.9-22.25c4.36-3.75,13.13-3.67,17.33.16l8.97,8.19c3.77,3.44,11.41,3.92,16.15,1.02h0c2.12-1.3,3.32-3.11,3.32-5v-42.63h0c-28.9-7.54-51.18-22.91-60.88-42l-1.4-2.75"/>
        <path class="cls-1" d="M206.8,209.78l-25.9-22.25c-4.36-3.75-13.13-3.67-17.33.16l-8.97,8.19c-3.77,3.44-11.41,3.92-16.15,1.02h0c-2.12-1.3-3.32-3.11-3.32-5v-42.63h0c28.9-7.54,51.18-22.91,60.88-42l1.4-2.75"/>
        <line class="cls-1" x1="118.87" y1="213.08" x2="118.87" y2="53.64"/>
        <path class="cls-1" d="M66.48,72.8s11.28,35.26,52.87,34.06"/>
        <path class="cls-1" d="M172.21,72.8s-11.28,35.26-52.87,34.06"/>
        <circle class="cls-1" cx="35.77" cy="92.65" r="11.87"/>
        <circle class="cls-1" cx="63.56" cy="58.07" r="11.87"/>
        <circle class="cls-1" cx="118.87" cy="37.83" r="11.87"/>
        <circle class="cls-1" cx="174.17" cy="56.99" r="11.87"/>
        <circle class="cls-1" cx="199.17" cy="92.65" r="11.87"/>
      </g>
    </g>
  </g>
</svg>